<svg xmlns="http://www.w3.org/2000/svg" width="66.23" height="66.159" viewBox="0 0 66.23 66.159">
  <g id="web_1_" data-name="web (1)" transform="translate(0 -0.5)">
    <path id="Path_186" data-name="Path 186" d="M36.6,135a.969.969,0,1,0,1.371-1.371l-2.354-2.354,2.354-2.353a.969.969,0,1,0-1.371-1.371l-3.039,3.039a.969.969,0,0,0,0,1.371Zm0,0" transform="translate(-28.97 -110.372)" fill="#f60"/>
    <path id="Path_187" data-name="Path 187" d="M115.568,131.275l-2.354,2.354A.969.969,0,1,0,114.586,135l3.039-3.039a.969.969,0,0,0,0-1.37l-3.039-3.039a.969.969,0,0,0-1.37,1.371Zm0,0" transform="translate(-98.323 -110.369)" fill="#f60"/>
    <path id="Path_188" data-name="Path 188" d="M77.032,135.215a.969.969,0,0,0,1.257-.548l2.388-6.078a.969.969,0,1,0-1.8-.709l-2.388,6.078A.97.97,0,0,0,77.032,135.215Zm0,0" transform="translate(-66.533 -110.367)" fill="#f60"/>
    <path id="Path_189" data-name="Path 189" d="M38.485,220.154h6.53a.969.969,0,0,0,0-1.939h-6.53a.969.969,0,0,0,0,1.939Zm0,0" transform="translate(-32.663 -189.552)" fill="#f60"/>
    <path id="Path_190" data-name="Path 190" d="M127.961,218.215h-11.48a.969.969,0,0,0,0,1.939h11.48a.969.969,0,1,0,0-1.939Zm0,0" transform="translate(-100.57 -189.552)" fill="#f60"/>
    <path id="Path_191" data-name="Path 191" d="M38.485,251.76h2.782a.969.969,0,0,0,0-1.939H38.485a.969.969,0,0,0,0,1.939Zm0,0" transform="translate(-32.663 -217.07)" fill="#f60"/>
    <path id="Path_192" data-name="Path 192" d="M177.817,249.82a.969.969,0,0,0,0,1.939h1.694a.969.969,0,1,0,0-1.939Zm0,0" transform="translate(-153.972 -217.069)" fill="#f60"/>
    <path id="Path_193" data-name="Path 193" d="M95.571,250.79a.969.969,0,0,0-.969-.969h-8.32a.969.969,0,0,0,0,1.939H94.6A.969.969,0,0,0,95.571,250.79Zm0,0" transform="translate(-74.277 -217.07)" fill="#f60"/>
    <path id="Path_194" data-name="Path 194" d="M213.7,250.79a.969.969,0,0,0,.969.97h3.173a.969.969,0,1,0,0-1.939h-3.173A.969.969,0,0,0,213.7,250.79Zm0,0" transform="translate(-186.06 -217.07)" fill="#f60"/>
    <path id="Path_195" data-name="Path 195" d="M166.369,151.217h3.347a.969.969,0,1,0,0-1.939h-3.347a.969.969,0,1,0,0,1.939Zm0,0" transform="translate(-144.004 -129.532)" fill="#f60"/>
    <path id="Path_196" data-name="Path 196" d="M221.216,151.217h20.42a.969.969,0,0,0,0-1.939h-20.42a.969.969,0,1,0,0,1.939Zm0,0" transform="translate(-191.756 -129.532)" fill="#f60"/>
    <path id="Path_197" data-name="Path 197" d="M299.424,182.246h-8.272a.969.969,0,0,0,0,1.939h8.272a.969.969,0,0,0,0-1.939Zm0,0" transform="translate(-252.647 -158.236)" fill="#f60"/>
    <path id="Path_198" data-name="Path 198" d="M248.039,182.246H245.2a.969.969,0,0,0,0,1.939h2.843a.969.969,0,0,0,0-1.939Zm0,0" transform="translate(-212.634 -158.236)" fill="#f60"/>
    <path id="Path_199" data-name="Path 199" d="M166.369,184.185h6.966a.969.969,0,0,0,0-1.939h-6.966a.969.969,0,1,0,0,1.939Zm0,0" transform="translate(-144.004 -158.236)" fill="#f60"/>
    <path id="Path_200" data-name="Path 200" d="M106.745,281.16h-6.529a.969.969,0,1,0,0,1.938h6.529a.969.969,0,1,0,0-1.938Zm0,0" transform="translate(-86.409 -244.355)" fill="#f60"/>
    <path id="Path_201" data-name="Path 201" d="M43.5,281.16H38.485a.969.969,0,1,0,0,1.938H43.5a.969.969,0,1,0,0-1.938Zm0,0" transform="translate(-32.663 -244.355)" fill="#f60"/>
    <path id="Path_202" data-name="Path 202" d="M184.789,281.16h-8.53a.969.969,0,0,0,0,1.938h8.53a.969.969,0,0,0,0-1.938Zm0,0" transform="translate(-152.615 -244.355)" fill="#f60"/>
    <path id="Path_203" data-name="Path 203" d="M299.981,242.668h-4.664a.969.969,0,0,0,0,1.939h4.664a.969.969,0,0,0,0-1.939Zm0,0" transform="translate(-256.272 -210.842)" fill="#f60"/>
    <path id="Path_204" data-name="Path 204" d="M393.946,244.607h6.585a.969.969,0,1,0,0-1.939h-6.585a.969.969,0,0,0,0,1.939Zm0,0" transform="translate(-342.143 -210.842)" fill="#f60"/>
    <path id="Path_205" data-name="Path 205" d="M358.334,242.668h-1.509a.969.969,0,1,0,0,1.939h1.509a.969.969,0,0,0,0-1.939Zm0,0" transform="translate(-309.824 -210.842)" fill="#f60"/>
    <path id="Path_206" data-name="Path 206" d="M295.317,326.267h4.664a.969.969,0,1,0,0-1.938h-4.664a.969.969,0,0,0,0,1.938Zm0,0" transform="translate(-256.272 -281.939)" fill="#f60"/>
    <path id="Path_207" data-name="Path 207" d="M393.946,326.267h6.585a.969.969,0,1,0,0-1.938h-6.585a.969.969,0,0,0,0,1.938Zm0,0" transform="translate(-342.143 -281.939)" fill="#f60"/>
    <path id="Path_208" data-name="Path 208" d="M356.829,326.267h1.509a.969.969,0,1,0,0-1.938h-1.509a.969.969,0,0,0,0,1.938Zm0,0" transform="translate(-309.827 -281.939)" fill="#f60"/>
    <path id="Path_209" data-name="Path 209" d="M299.981,405.988h-4.664a.969.969,0,1,0,0,1.938h4.664a.969.969,0,1,0,0-1.938Zm0,0" transform="translate(-256.272 -353.036)" fill="#f60"/>
    <path id="Path_210" data-name="Path 210" d="M400.53,405.988h-6.585a.969.969,0,1,0,0,1.938h6.585a.969.969,0,1,0,0-1.938Zm0,0" transform="translate(-342.143 -353.036)" fill="#f60"/>
    <path id="Path_211" data-name="Path 211" d="M358.334,405.988h-1.509a.969.969,0,1,0,0,1.938h1.509a.969.969,0,1,0,0-1.938Zm0,0" transform="translate(-309.824 -353.036)" fill="#f60"/>
    <path id="Path_212" data-name="Path 212" d="M61.964.5H4.266A4.271,4.271,0,0,0,0,4.766v46.9a4.271,4.271,0,0,0,4.266,4.266H7.914a.969.969,0,1,0,0-1.938H4.266a2.33,2.33,0,0,1-2.327-2.327V47.989H37.252V49.66h-.769a1.908,1.908,0,0,0-1.906,1.906v2.427H13.807a.969.969,0,0,0,0,1.938h9.32v3.476H20.2a3.545,3.545,0,0,0-3.541,3.541v2.094a1.617,1.617,0,0,0,1.615,1.615H47.881A1.617,1.617,0,0,0,49.5,65.043V62.949a3.545,3.545,0,0,0-3.541-3.541H43.029V58.183H60.949a1.908,1.908,0,0,0,1.906-1.906V55.82a4.272,4.272,0,0,0,3.3-4.154l.073-46.9A4.27,4.27,0,0,0,61.964.5ZM36.516,45.682V41.035h24.4v4.646ZM39.191,39.1V37.057H58.241V39.1ZM58.241,47.62v2.04H39.191V47.62ZM25.065,55.932h9.512v.345a1.908,1.908,0,0,0,1.906,1.906h4.607v1.225H25.065Zm20.892,5.415a1.6,1.6,0,0,1,1.6,1.6V64.72H18.6V62.949a1.6,1.6,0,0,1,1.6-1.6Zm14.96-5.1h-24.4V51.6h24.4Zm3.3-4.578a2.328,2.328,0,0,1-1.363,2.115V51.566a1.909,1.909,0,0,0-1.906-1.906H60.18V47.989h4.038Zm0-5.615H62.823c.02-.11.032-5.048.032-5.048A1.909,1.909,0,0,0,60.949,39.1H60.18V37.057h.769a1.909,1.909,0,0,0,1.906-1.906V30.44a1.909,1.909,0,0,0-1.906-1.906H55.474a.969.969,0,0,0,0,1.939h5.443v4.646h-24.4V30.472H49.442a.969.969,0,0,0,0-1.939H36.483a1.909,1.909,0,0,0-1.906,1.906v4.711a1.909,1.909,0,0,0,1.906,1.906h.769V39.1h-.769A1.909,1.909,0,0,0,34.577,41s.012,4.938.032,5.048H1.938V13.685h62.28Zm0-34.3H2.01V4.766A2.33,2.33,0,0,1,4.337,2.439H61.89a2.33,2.33,0,0,1,2.327,2.327Zm0,0" fill="#f60"/>
    <path id="Path_213" data-name="Path 213" d="M36.118,29.262a2.845,2.845,0,1,0,2.845,2.844A2.847,2.847,0,0,0,36.118,29.262Zm0,3.75a.906.906,0,1,1,.906-.906A.907.907,0,0,1,36.118,33.012Zm0,0" transform="translate(-28.97 -25.041)" fill="#f60"/>
    <path id="Path_214" data-name="Path 214" d="M92.1,29.262a2.845,2.845,0,1,0,2.844,2.844A2.848,2.848,0,0,0,92.1,29.262Zm0,3.75a.906.906,0,1,1,.906-.906A.907.907,0,0,1,92.1,33.012Zm0,0" transform="translate(-77.712 -25.041)" fill="#f60"/>
    <path id="Path_215" data-name="Path 215" d="M148.09,29.262a2.845,2.845,0,1,0,2.845,2.844A2.847,2.847,0,0,0,148.09,29.262Zm0,3.75a.906.906,0,1,1,.906-.906A.907.907,0,0,1,148.09,33.012Zm0,0" transform="translate(-126.458 -25.041)" fill="#f60"/>
  </g>
</svg>
