<svg xmlns="http://www.w3.org/2000/svg" width="68" height="67.553" viewBox="0 0 68 67.553">
  <g id="seo-and-web_1_" data-name="seo-and-web (1)" transform="translate(0.471 0.001)">
    <g id="Group_144" data-name="Group 144" transform="translate(26.814 15.669)">
      <g id="Group_143" data-name="Group 143">
        <path id="Path_216" data-name="Path 216" d="M198.715,112a6.715,6.715,0,1,0,6.715,6.715A6.715,6.715,0,0,0,198.715,112Zm0,11.192a4.477,4.477,0,1,1,4.477-4.477A4.477,4.477,0,0,1,198.715,123.193Z" transform="translate(-192 -112.001)" fill="#f60"/>
      </g>
    </g>
    <g id="Group_146" data-name="Group 146" transform="translate(17.352 -0.001)">
      <g id="Group_145" data-name="Group 145">
        <path id="Path_217" data-name="Path 217" d="M152.545,32.066a14.292,14.292,0,0,0-1.167-1.047l.011-.032A27.4,27.4,0,0,0,141.2.208a1.119,1.119,0,0,0-1.3,0A27.4,27.4,0,0,0,129.7,30.987l.011.032a14.29,14.29,0,0,0-1.152,21.257,1.119,1.119,0,0,0,.791.328,1.134,1.134,0,0,0,.354-.057,1.119,1.119,0,0,0,.754-.9l.845-5.914a1.119,1.119,0,0,1,1.107-.96h3.409l-.851,4.253a1.119,1.119,0,0,0,1.1,1.343h8.954a1.119,1.119,0,0,0,1.1-1.343l-.851-4.253h3.409a1.119,1.119,0,0,1,1.107.961l.845,5.913a1.119,1.119,0,0,0,.754.9,1.134,1.134,0,0,0,.354.057,1.119,1.119,0,0,0,.791-.328A14.29,14.29,0,0,0,152.545,32.066Zm-12-29.556a25.253,25.253,0,0,1,6.617,7.563H133.93A25.253,25.253,0,0,1,140.546,2.51ZM132.414,42.53a3.373,3.373,0,0,0-3.323,2.883l-.485,3.395a12.028,12.028,0,0,1-1.958-7.652h0a12.069,12.069,0,0,1,3.805-7.846l2.962,9.22Zm5.021,5.6.672-3.358h4.88l.672,3.358Zm-1.669-5.6-3.685-11.463-.246-.767a25.166,25.166,0,0,1,.968-17.989h15.486a25.165,25.165,0,0,1,.968,17.989l-.246.767L145.327,42.53Zm16.72,6.278L152,45.414a3.373,3.373,0,0,0-3.323-2.883h-1l2.964-9.22a12.089,12.089,0,0,1,1.845,15.5Z" transform="translate(-124.369 0.001)" fill="#f60"/>
      </g>
    </g>
    <g id="Group_148" data-name="Group 148" transform="translate(-0.048 45.888)">
      <g id="Group_147" data-name="Group 147">
        <path id="Path_218" data-name="Path 218" d="M29.1,334.626v3.649a7.761,7.761,0,0,0-7.7,1.883,8.982,8.982,0,0,0-6.85-3.2,8.816,8.816,0,0,0-2.41.336A11.135,11.135,0,0,0,1.119,328H0v2.238H1.119A8.9,8.9,0,0,1,10,338.233a8.97,8.97,0,0,0-2.766,2.51A11.136,11.136,0,0,0,0,338.074v2.238a8.964,8.964,0,0,1,8.954,8.954h2.238a11.12,11.12,0,0,0-2.35-6.843,6.737,6.737,0,0,1,2.782-2.559.043.043,0,0,0,.035-.011,6.64,6.64,0,0,1,2.891-.66,6.73,6.73,0,0,1,5.456,2.834,8.36,8.36,0,0,0-.979,3.882h2.238a6.056,6.056,0,0,1,.932-3.233h-.007c.016-.021.037-.037.053-.059a5.577,5.577,0,0,1,6.856-1.968v2.932h2.238v-8.954Z" transform="translate(0 -328)" fill="#f60"/>
      </g>
    </g>
    <g id="Group_150" data-name="Group 150" transform="translate(35.768 45.888)">
      <g id="Group_149" data-name="Group 149">
        <path id="Path_219" data-name="Path 219" d="M286.219,330.239h1.119V328h-1.119a11.136,11.136,0,0,0-11.021,9.29,8.817,8.817,0,0,0-2.41-.336,8.982,8.982,0,0,0-6.85,3.2,7.761,7.761,0,0,0-7.7-1.883v-3.649H256v8.954h2.238v-2.929a5.577,5.577,0,0,1,6.856,1.966c.016.022.037.038.053.059h-.007a6.056,6.056,0,0,1,.932,3.235h2.238a8.36,8.36,0,0,0-.979-3.882,6.73,6.73,0,0,1,5.456-2.834,6.641,6.641,0,0,1,2.891.663c.011.006.023.007.035.011a6.738,6.738,0,0,1,2.788,2.556,11.119,11.119,0,0,0-2.356,6.843h2.238a8.964,8.964,0,0,1,8.954-8.954v-2.238a11.139,11.139,0,0,0-7.237,2.669,8.971,8.971,0,0,0-2.766-2.51A8.9,8.9,0,0,1,286.219,330.239Z" transform="translate(-256 -328)" fill="#f60"/>
      </g>
    </g>
    <g id="Group_152" data-name="Group 152" transform="translate(28.008 32.572)">
      <g id="Group_151" data-name="Group 151" transform="translate(0 0)">
        <rect id="Rectangle_67" data-name="Rectangle 67" width="2" height="2" transform="translate(-0.479 -0.02)" fill="#f60"/>
      </g>
    </g>
    <g id="Group_154" data-name="Group 154" transform="translate(32.525 32.572)">
      <g id="Group_153" data-name="Group 153" transform="translate(0 0)">
        <rect id="Rectangle_68" data-name="Rectangle 68" width="2" height="2" transform="translate(0.004 -0.02)" fill="#f60"/>
      </g>
    </g>
    <g id="Group_156" data-name="Group 156" transform="translate(37.042 32.572)">
      <g id="Group_155" data-name="Group 155" transform="translate(0 0)">
        <rect id="Rectangle_69" data-name="Rectangle 69" width="2" height="2" transform="translate(0.487 -0.02)" fill="#f60"/>
      </g>
    </g>
    <g id="Group_158" data-name="Group 158" transform="translate(12.45 59.172)">
      <g id="Group_157" data-name="Group 157" transform="translate(0 0)">
        <rect id="Rectangle_70" data-name="Rectangle 70" width="2" height="2" transform="translate(0.079 0.38)" fill="#f60"/>
      </g>
    </g>
    <g id="Group_160" data-name="Group 160" transform="translate(-0.096 41.606)">
      <g id="Group_159" data-name="Group 159" transform="translate(0 0)">
        <rect id="Rectangle_71" data-name="Rectangle 71" width="3" height="2" transform="translate(-0.374 -0.054)" fill="#f60"/>
      </g>
    </g>
    <g id="Group_162" data-name="Group 162" transform="translate(62.638 51.643)">
      <g id="Group_161" data-name="Group 161" transform="translate(0 0)">
        <rect id="Rectangle_72" data-name="Rectangle 72" width="2" height="2" transform="translate(-0.108 -0.092)" fill="#f60"/>
      </g>
    </g>
    <g id="Group_164" data-name="Group 164" transform="translate(53.604 47.127)">
      <g id="Group_163" data-name="Group 163" transform="translate(0 0)">
        <rect id="Rectangle_73" data-name="Rectangle 73" width="3" height="2" transform="translate(-0.075 0.425)" fill="#f60"/>
      </g>
    </g>
    <g id="Group_166" data-name="Group 166" transform="translate(41.559 64.692)">
      <g id="Group_165" data-name="Group 165" transform="translate(0 0)">
        <rect id="Rectangle_74" data-name="Rectangle 74" width="2" height="3" transform="translate(-0.03 -0.14)" fill="#f60"/>
      </g>
    </g>
    <g id="Group_168" data-name="Group 168" transform="translate(64.645 39.097)">
      <g id="Group_167" data-name="Group 167" transform="translate(0 0)">
        <rect id="Rectangle_75" data-name="Rectangle 75" width="3" height="2" transform="translate(-0.116 0.455)" fill="#f60"/>
      </g>
    </g>
  </g>
</svg>
