<svg xmlns="http://www.w3.org/2000/svg" width="73.372" height="72.528" viewBox="0 0 73.372 72.528">
  <g id="business" transform="translate(-0.279 -1)">
    <path id="Path_173" data-name="Path 173" d="M46.906,61.83H39.887V55.459l10.4-6.5-10.4-6.5V34.925h7.019V25.566H39.887V17.377h9.359V1H28.189V17.377h9.359v8.189H30.528v3.509H20v2.34H30.528v3.509h7.019v7.541l-10.4,6.5,10.4,6.5V61.83H30.528a3.514,3.514,0,0,0-3.509,3.509v4.679a3.514,3.514,0,0,0,3.509,3.509H46.906a3.514,3.514,0,0,0,3.509-3.509V65.34A3.514,3.514,0,0,0,46.906,61.83ZM30.528,3.34H46.906v11.7H30.528Zm2.34,24.566h11.7v4.679h-11.7Zm5.849,16.587,7.151,4.47-7.151,4.47-7.151-4.47Zm9.359,25.527a1.172,1.172,0,0,1-1.17,1.17H30.528a1.172,1.172,0,0,1-1.17-1.17V65.34a1.172,1.172,0,0,1,1.17-1.17H46.906a1.172,1.172,0,0,1,1.17,1.17Z" transform="translate(3.349 0)" fill="#f60"/>
    <path id="Path_174" data-name="Path 174" d="M20.381,58.223l2.682,2.682H12.8a3.506,3.506,0,0,0-2.124-2.124V34H8.34V58.781A3.5,3.5,0,1,0,12.8,63.245H23.063l-2.682,2.682,1.654,1.654,5.506-5.506-5.506-5.506ZM9.509,63.245a1.17,1.17,0,1,1,1.17-1.17A1.172,1.172,0,0,1,9.509,63.245Z" transform="translate(0.972 5.604)" fill="#f60"/>
    <path id="Path_175" data-name="Path 175" d="M63.448,44.989V11.8A3.5,3.5,0,1,0,58.984,7.34H47.07v2.34H58.984A3.506,3.506,0,0,0,61.108,11.8V44.99a3.506,3.506,0,0,0-2.124,2.124h-7.92l2.682-2.682-1.654-1.654-5.506,5.505,5.506,5.506,1.654-1.654-2.682-2.682h7.92a3.5,3.5,0,1,0,4.464-4.464ZM62.278,7.34a1.17,1.17,0,1,1-1.17,1.17A1.172,1.172,0,0,1,62.278,7.34Zm0,42.113a1.17,1.17,0,1,1,1.17-1.17A1.172,1.172,0,0,1,62.278,49.453Z" transform="translate(7.864 0.679)" fill="#f60"/>
    <path id="Path_176" data-name="Path 176" d="M20.683,27.058l-10.2-7.287L.279,27.058l10.2,7.287Zm-10.2-4.411,6.175,4.411-6.175,4.411L4.306,27.058Z" transform="translate(0 3.188)" fill="#f60"/>
    <path id="Path_177" data-name="Path 177" d="M31,5H42.7V7.34H31Z" transform="translate(5.217 0.679)" fill="#f60"/>
    <path id="Path_178" data-name="Path 178" d="M31,9h7.019v2.34H31Z" transform="translate(5.217 1.359)" fill="#f60"/>
    <path id="Path_179" data-name="Path 179" d="M39,9h2.34v2.34H39Z" transform="translate(6.575 1.359)" fill="#f60"/>
    <path id="Path_180" data-name="Path 180" d="M56,57h2.34v2.34H56Z" transform="translate(9.462 9.51)" fill="#f60"/>
    <path id="Path_181" data-name="Path 181" d="M52,57h2.34v2.34H52Z" transform="translate(8.783 9.51)" fill="#f60"/>
    <path id="Path_182" data-name="Path 182" d="M48,57h2.34v2.34H48Z" transform="translate(8.104 9.51)" fill="#f60"/>
    <path id="Path_183" data-name="Path 183" d="M19,9h2.34v2.34H19Z" transform="translate(3.179 1.359)" fill="#f60"/>
    <path id="Path_184" data-name="Path 184" d="M23,9h2.34v2.34H23Z" transform="translate(3.858 1.359)" fill="#f60"/>
    <path id="Path_185" data-name="Path 185" d="M15,9h2.34v2.34H15Z" transform="translate(2.5 1.359)" fill="#f60"/>
  </g>
</svg>
