<svg xmlns="http://www.w3.org/2000/svg" width="56.833" height="52" viewBox="0 0 56.833 52">
  <g id="check-mark" transform="translate(0 -1.146)">
    <path id="Path_138" data-name="Path 138" d="M.449,11.341H3.987a.46.46,0,0,0,.458-.468A5.1,5.1,0,0,1,9.457,5.72a.46.46,0,0,0,.458-.468V1.616a.466.466,0,0,0-.46-.47A9.608,9.608,0,0,0,0,10.873.455.455,0,0,0,.449,11.341Z" transform="translate(0 0)" fill="#f60"/>
    <path id="Path_139" data-name="Path 139" d="M.449,15.237H3.987a.459.459,0,0,0,.458-.466V7.328a.464.464,0,0,0-.458-.468H.449A.458.458,0,0,0,0,7.328v7.443A.455.455,0,0,0,.449,15.237Z" transform="translate(0 6.334)" fill="#f60"/>
    <path id="Path_140" data-name="Path 140" d="M.449,19.842H3.987a.458.458,0,0,0,.458-.466V11.935a.465.465,0,0,0-.458-.47H.449a.461.461,0,0,0-.449.47v7.441A.453.453,0,0,0,.449,19.842Z" transform="translate(0 11.44)" fill="#f60"/>
    <path id="Path_141" data-name="Path 141" d="M.449,24.539H3.987a.456.456,0,0,0,.458-.466V16.638a.464.464,0,0,0-.458-.466H.449A.46.46,0,0,0,0,16.638v7.435A.452.452,0,0,0,.449,24.539Z" transform="translate(0 16.658)" fill="#f60"/>
    <path id="Path_142" data-name="Path 142" d="M24.422,11.61a.455.455,0,0,0,.449-.466V10.132l-1.6,1.476h1.149Z" transform="translate(25.8 9.962)" fill="#f60"/>
    <path id="Path_143" data-name="Path 143" d="M25.918,11.465H24l-2.075,2.161v5.75a.46.46,0,0,0,.453.466H25.92a.453.453,0,0,0,.449-.466V11.935A.463.463,0,0,0,25.918,11.465Z" transform="translate(24.305 11.44)" fill="#f60"/>
    <path id="Path_144" data-name="Path 144" d="M25.912,16.172h-3.53a.464.464,0,0,0-.458.466v7.435a.456.456,0,0,0,.458.466h3.53a.456.456,0,0,0,.453-.466V16.638A.462.462,0,0,0,25.912,16.172Z" transform="translate(24.306 16.658)" fill="#f60"/>
    <path id="Path_145" data-name="Path 145" d="M22.256,23.638H15.02a.467.467,0,0,0-.458.466v3.637a.465.465,0,0,0,.458.47h7.237a.46.46,0,0,0,.458-.47V24.1A.462.462,0,0,0,22.256,23.638Z" transform="translate(16.143 24.934)" fill="#f60"/>
    <path id="Path_146" data-name="Path 146" d="M17.772,23.638H10.535a.464.464,0,0,0-.453.466v3.637a.462.462,0,0,0,.453.47h7.237a.46.46,0,0,0,.458-.47V24.1A.463.463,0,0,0,17.772,23.638Z" transform="translate(11.177 24.934)" fill="#f60"/>
    <path id="Path_147" data-name="Path 147" d="M13.2,23.638H5.961a.464.464,0,0,0-.453.466v3.637a.462.462,0,0,0,.453.47H13.2a.457.457,0,0,0,.458-.47V24.1A.462.462,0,0,0,13.2,23.638Z" transform="translate(6.106 24.934)" fill="#f60"/>
    <path id="Path_148" data-name="Path 148" d="M15.02,5.72h7.237a.46.46,0,0,0,.458-.468V1.616a.463.463,0,0,0-.458-.47H15.02a.468.468,0,0,0-.458.47V5.254A.464.464,0,0,0,15.02,5.72Z" transform="translate(16.143 0)" fill="#f60"/>
    <path id="Path_149" data-name="Path 149" d="M10.535,5.72h7.237a.46.46,0,0,0,.458-.468V1.616a.464.464,0,0,0-.458-.47H10.535a.465.465,0,0,0-.453.47V5.254A.461.461,0,0,0,10.535,5.72Z" transform="translate(11.177 0)" fill="#f60"/>
    <path id="Path_150" data-name="Path 150" d="M5.961,5.72H13.2a.457.457,0,0,0,.458-.468V1.616a.463.463,0,0,0-.46-.47H5.961a.463.463,0,0,0-.453.47V5.254A.46.46,0,0,0,5.961,5.72Z" transform="translate(6.106 0)" fill="#f60"/>
    <path id="Path_151" data-name="Path 151" d="M9.455,26.535a5.108,5.108,0,0,1-5.012-5.151.458.458,0,0,0-.458-.462H.449a.451.451,0,0,0-.449.46A9.6,9.6,0,0,0,9.455,31.1a.46.46,0,0,0,.458-.47V27A.464.464,0,0,0,9.455,26.535Z" transform="translate(0 21.924)" fill="#f60"/>
    <path id="Path_152" data-name="Path 152" d="M28.74,20.921H25.21a.458.458,0,0,0-.458.462,5.108,5.108,0,0,1-5.016,5.151.467.467,0,0,0-.453.47v3.633a.462.462,0,0,0,.453.47,9.6,9.6,0,0,0,9.455-9.723A.453.453,0,0,0,28.74,20.921Z" transform="translate(21.377 21.922)" fill="#f60"/>
    <path id="Path_153" data-name="Path 153" d="M19.736,5.72c2.739,0,3.129.4,4.542,3.015l3.365-3.163c-1.185-3.418-3.992-4.426-7.907-4.426a.465.465,0,0,0-.453.47V5.254A.461.461,0,0,0,19.736,5.72Z" transform="translate(21.377 0)" fill="#f60"/>
    <path id="Path_154" data-name="Path 154" d="M51.71,7.838,47.847,3.975a1.82,1.82,0,0,0-2.57,0L22.125,27.13,11.111,16.039a1.826,1.826,0,0,0-2.579,0L4.676,19.9a1.817,1.817,0,0,0,0,2.575L16.925,34.809l.042.057,2.665,2.669.622.622h0l.571.569a1.825,1.825,0,0,0,2.575,0L51.71,10.413A1.825,1.825,0,0,0,51.71,7.838Z" transform="translate(4.591 2.548)" fill="#f60"/>
  </g>
</svg>
