<svg xmlns="http://www.w3.org/2000/svg" width="65.862" height="65.862" viewBox="0 0 65.862 65.862">
  <g id="interface" transform="translate(-0.001)">
    <g id="Group_6" data-name="Group 6" transform="translate(30.141 55.296)">
      <g id="Group_5" data-name="Group 5">
        <path id="Path_34" data-name="Path 34" d="M236.5,430.236a1.286,1.286,0,1,0,.377.909A1.3,1.3,0,0,0,236.5,430.236Z" transform="translate(-234.301 -429.859)" fill="#fff"/>
      </g>
    </g>
    <g id="Group_8" data-name="Group 8" transform="translate(0.001 33.054)">
      <g id="Group_7" data-name="Group 7">
        <path id="Path_35" data-name="Path 35" d="M38.461,267.709v-9.465a1.286,1.286,0,0,0-1.767-1.193l-22.166,8.927H7.389a7.388,7.388,0,0,0,0,14.777h.85v7.725a1.286,1.286,0,0,0,1.286,1.286h5.251a1.286,1.286,0,0,0,1.286-1.286v-7.1l20.631,8.3a1.286,1.286,0,0,0,1.766-1.193v-9.465a5.8,5.8,0,0,0,0-11.3Zm-24.97,19.484H10.812v-6.439h2.679v6.439Zm0-9.011h-6.1a4.815,4.815,0,1,1,0-9.631h6.1Zm22.4,8.394h0L16.064,278.6V268.133l14.076-5.669V275.23a1.286,1.286,0,1,0,2.573,0v-13.8l3.175-1.279Zm2.573-10.257V270.4a3.224,3.224,0,0,1,0,5.913Z" transform="translate(-0.001 -256.958)" fill="#fff"/>
      </g>
    </g>
    <g id="Group_10" data-name="Group 10" transform="translate(46.675 48.21)">
      <g id="Group_9" data-name="Group 9">
        <path id="Path_36" data-name="Path 36" d="M371.4,374.775h-7.283a1.286,1.286,0,0,0,0,2.573H371.4a1.286,1.286,0,0,0,0-2.573Z" transform="translate(-362.835 -374.775)" fill="#fff"/>
      </g>
    </g>
    <g id="Group_12" data-name="Group 12" transform="translate(44.563 38.407)">
      <g id="Group_11" data-name="Group 11">
        <path id="Path_37" data-name="Path 37" d="M351.127,298.947a1.287,1.287,0,0,0-1.819,0l-2.512,2.512a1.286,1.286,0,0,0,1.819,1.819l2.512-2.512A1.287,1.287,0,0,0,351.127,298.947Z" transform="translate(-346.418 -298.57)" fill="#fff"/>
      </g>
    </g>
    <g id="Group_14" data-name="Group 14" transform="translate(44.574 55.296)">
      <g id="Group_13" data-name="Group 13">
        <path id="Path_38" data-name="Path 38" d="M351.292,432.837l-2.6-2.6a1.286,1.286,0,1,0-1.819,1.819l2.6,2.6a1.286,1.286,0,1,0,1.819-1.819Z" transform="translate(-346.499 -429.864)" fill="#fff"/>
      </g>
    </g>
    <g id="Group_16" data-name="Group 16" transform="translate(6.947)">
      <g id="Group_15" data-name="Group 15">
        <path id="Path_39" data-name="Path 39" d="M107.771,0H83.845A5.151,5.151,0,0,0,78.7,5.145V5.66H57.088A3.091,3.091,0,0,0,54,8.747V29.072a3.091,3.091,0,0,0,3.087,3.087h1.329V36.1a1.286,1.286,0,0,0,2.2.91l4.854-4.855H91.02a3.091,3.091,0,0,0,3.087-3.087V25.213h13.664a5.151,5.151,0,0,0,5.145-5.145V5.145A5.151,5.151,0,0,0,107.771,0ZM91.535,29.072a.515.515,0,0,1-.515.515H64.935a1.287,1.287,0,0,0-.91.377L60.99,33V30.873A1.286,1.286,0,0,0,59.7,29.587H57.088a.515.515,0,0,1-.515-.515V8.747a.515.515,0,0,1,.515-.515H78.7V20.067a5.151,5.151,0,0,0,5.145,5.145h7.69Zm18.809-9a2.576,2.576,0,0,1-2.573,2.573H83.845a2.576,2.576,0,0,1-2.573-2.573V5.145a2.576,2.576,0,0,1,2.573-2.573h23.926a2.576,2.576,0,0,1,2.573,2.573Z" transform="translate(-54.001)" fill="#fff"/>
      </g>
    </g>
    <g id="Group_18" data-name="Group 18" transform="translate(43.189 6.237)">
      <g id="Group_17" data-name="Group 17">
        <path id="Path_40" data-name="Path 40" d="M346.469,53.741l-8.8-5.083a1.286,1.286,0,0,0-1.93,1.114V59.938a1.286,1.286,0,0,0,1.93,1.114l8.8-5.083a1.286,1.286,0,0,0,0-2.228Zm-8.161,3.969V52l4.945,2.855Z" transform="translate(-335.736 -48.486)" fill="#fff"/>
      </g>
    </g>
    <g id="Group_20" data-name="Group 20" transform="translate(13.445 13.507)">
      <g id="Group_19" data-name="Group 19">
        <path id="Path_41" data-name="Path 41" d="M118.662,105H105.8a1.286,1.286,0,1,0,0,2.573h12.864a1.286,1.286,0,1,0,0-2.573Z" transform="translate(-104.512 -105)" fill="#fff"/>
      </g>
    </g>
    <g id="Group_22" data-name="Group 22" transform="translate(26.309 20.711)">
      <g id="Group_21" data-name="Group 21">
        <path id="Path_42" data-name="Path 42" d="M206.707,161.377a1.286,1.286,0,1,0,.377.909A1.3,1.3,0,0,0,206.707,161.377Z" transform="translate(-204.511 -161)" fill="#fff"/>
      </g>
    </g>
    <g id="Group_24" data-name="Group 24" transform="translate(13.445 20.711)">
      <g id="Group_23" data-name="Group 23">
        <path id="Path_43" data-name="Path 43" d="M113.837,161H105.8a1.286,1.286,0,1,0,0,2.573h8.038a1.286,1.286,0,1,0,0-2.573Z" transform="translate(-104.512 -161)" fill="#fff"/>
      </g>
    </g>
  </g>
</svg>
