<svg xmlns="http://www.w3.org/2000/svg" width="64" height="64" viewBox="0 0 64 64">
  <g id="_026---IT-Request" data-name="026---IT-Request" transform="translate(0)">
    <path id="Shape" d="M37.952,47H11.285a2.166,2.166,0,0,0-1.9,1.162L7,53.409A2.133,2.133,0,0,0,8.857,56.6H37.952a2.133,2.133,0,0,0,2.133-2.133V49.133A2.133,2.133,0,0,0,37.952,47ZM8.9,54.423l2.384-5.29H37.952v5.29Z" transform="translate(0.448 3.133)" fill="#fff"/>
    <path id="Shape-2" data-name="Shape" d="M40,49.133v5.333A2.133,2.133,0,0,0,42.133,56.6h9.894a2.133,2.133,0,0,0,1.9-3.105l-2.475-5.42A2.133,2.133,0,0,0,49.6,47H42.133A2.133,2.133,0,0,0,40,49.133Zm12.034,5.333h-9.9V49.133l7.422-.087Z" transform="translate(2.667 3.133)" fill="#fff"/>
    <path id="Shape-3" data-name="Shape" d="M1.067,24.533a1.067,1.067,0,0,0-.886,1.66A10.652,10.652,0,0,0,7.467,30.8v6.53a5.343,5.343,0,0,0,4.267,5.227v3.307H10.355A5.269,5.269,0,0,0,5.44,49.14L.23,59.612A3.2,3.2,0,0,0,3.2,64H60.8a3.2,3.2,0,0,0,2.937-4.467L58.6,49.22a5.308,5.308,0,0,0-4.955-3.354H52.267V42.56a5.343,5.343,0,0,0,4.267-5.227V30.8a10.646,10.646,0,0,0,7.286-4.61,1.067,1.067,0,0,0-.886-1.66h-6.4V16h6.4a1.067,1.067,0,0,0,.886-1.66,10.646,10.646,0,0,0-7.286-4.61v-4.4A5.34,5.34,0,0,0,51.2,0H12.8A5.34,5.34,0,0,0,7.467,5.333v4.4A10.646,10.646,0,0,0,.18,14.34,1.067,1.067,0,0,0,1.067,16h6.4v8.533ZM56.651,50.091,61.789,60.4a1.067,1.067,0,0,1-.989,1.462H3.2A1.076,1.076,0,0,1,2.174,60.48L7.382,50.009A3.183,3.183,0,0,1,10.355,48h43.29a3.222,3.222,0,0,1,3.006,2.091ZM13.867,45.867v-3.2H16a1.067,1.067,0,0,0,2.133,0h2.133a1.067,1.067,0,0,0,2.133,0h2.133a1.067,1.067,0,0,0,2.133,0H28.8a1.067,1.067,0,0,0,2.133,0h2.133a1.067,1.067,0,0,0,2.133,0h2.133a1.067,1.067,0,0,0,2.133,0H41.6a1.067,1.067,0,0,0,2.133,0h2.133a1.067,1.067,0,0,0,2.133,0h2.133v3.2ZM51.2,40.533H12.8a3.2,3.2,0,0,1-3.2-3.2V30.906a10.654,10.654,0,0,0,2.133-.329v2.49A2.133,2.133,0,0,0,13.867,35.2H50.133a2.133,2.133,0,0,0,2.133-2.133v-2.49a10.642,10.642,0,0,0,2.133.329v6.428A3.2,3.2,0,0,1,51.2,40.533ZM17.561,26.667H46.439a10.705,10.705,0,0,0,3.694,3.1v3.3H13.867v-3.3A10.705,10.705,0,0,0,17.561,26.667Zm32.573-15.9a10.705,10.705,0,0,0-3.694,3.1H17.561a10.705,10.705,0,0,0-3.694-3.1V6.4H50.133ZM45.182,16a10.6,10.6,0,0,0,0,8.533H18.818a10.6,10.6,0,0,0,0-8.533Zm6.748,4.267,2.47-4.117v8.235Zm1.956-6.4a1.067,1.067,0,0,0-.915.517l-3.2,5.333a1.067,1.067,0,0,0,0,1.1l3.2,5.333a1.067,1.067,0,0,0,.915.517H60.6a8.533,8.533,0,1,1,0-12.8ZM12.8,2.133H51.2a3.2,3.2,0,0,1,3.2,3.2V9.628a10.642,10.642,0,0,0-2.133.329V6.4a2.133,2.133,0,0,0-2.133-2.133H13.867A2.133,2.133,0,0,0,11.733,6.4V9.956A10.654,10.654,0,0,0,9.6,9.628V5.333A3.2,3.2,0,0,1,12.8,2.133ZM12.4,12.42A8.533,8.533,0,1,1,3.4,26.667h6.71a1.067,1.067,0,0,0,.915-.517l3.2-5.333a1.067,1.067,0,0,0,0-1.1l-3.2-5.333a1.067,1.067,0,0,0-.915-.517H3.4A8.518,8.518,0,0,1,12.4,12.42Zm-.327,7.846L9.6,24.384V16.149Z" transform="translate(0 0)" fill="#fff"/>
    <path id="Shape-4" data-name="Shape" d="M22.067,20.133H27.4A1.067,1.067,0,0,0,27.4,18H22.067a1.067,1.067,0,1,0,0,2.133Z" transform="translate(1.4 1.2)" fill="#fff"/>
    <path id="Shape-5" data-name="Shape" d="M33.067,20.133H38.4A1.067,1.067,0,1,0,38.4,18H33.067a1.067,1.067,0,1,0,0,2.133Z" transform="translate(2.133 1.2)" fill="#fff"/>
  </g>
</svg>
