<svg xmlns="http://www.w3.org/2000/svg" width="65.902" height="67" viewBox="0 0 65.902 67">
  <g id="file" transform="translate(-2 -1)">
    <path id="Path_59" data-name="Path 59" d="M40.443,56.164h-2.2V45.4a1.1,1.1,0,1,0-2.2,0V56.164H7.492V34.2H16.63a1.1,1.1,0,1,0,0-2.2H6.393a1.1,1.1,0,0,0-1.1,1.1V56.164H3.1a1.1,1.1,0,0,0-1.1,1.1v2.2a5.492,5.492,0,0,0,5.492,5.492H36.049a5.492,5.492,0,0,0,5.492-5.492v-2.2A1.1,1.1,0,0,0,40.443,56.164Zm-1.1,3.3a3.3,3.3,0,0,1-3.3,3.3h-2.2v-1.1a1.1,1.1,0,1,0-2.2,0v1.1H11.885v-1.1a1.1,1.1,0,1,0-2.2,0v1.1h-2.2a3.3,3.3,0,0,1-3.3-3.3v-1.1H39.344Z" transform="translate(0 3.049)" fill="#fff"/>
    <path id="Path_60" data-name="Path 60" d="M54.492,8.2h2.2a1.1,1.1,0,1,0,0-2.2h-2.2a3.3,3.3,0,0,0-3.3,3.3v1.1H50.1a1.1,1.1,0,0,0,0,2.2h1.1v3.3a1.1,1.1,0,0,0,2.2,0v-3.3h1.1a1.1,1.1,0,0,0,0-2.2h-1.1V9.3A1.1,1.1,0,0,1,54.492,8.2Z" transform="translate(4.623 0.492)" fill="#fff"/>
    <path id="Path_61" data-name="Path 61" d="M60.475,2H47.3A3.3,3.3,0,0,0,44,5.3v2.2a1.1,1.1,0,0,0,2.2,0V5.3a1.1,1.1,0,0,1,1.1-1.1h13.18a1.1,1.1,0,0,1,1.1,1.1v13.18a1.1,1.1,0,0,1-1.1,1.1H47.3a1.1,1.1,0,0,1-1.1-1.1v-6.59a1.1,1.1,0,0,0-2.2,0v6.59a3.3,3.3,0,0,0,3.3,3.3h13.18a3.3,3.3,0,0,0,3.3-3.3V5.3a3.3,3.3,0,0,0-3.3-3.3Z" transform="translate(4.131 0.098)" fill="#fff"/>
    <path id="Path_62" data-name="Path 62" d="M49,42.393A4.393,4.393,0,1,0,53.393,38,4.393,4.393,0,0,0,49,42.393Zm6.59,0a2.2,2.2,0,1,1-2.2-2.2A2.2,2.2,0,0,1,55.59,42.393Z" transform="translate(4.623 3.639)" fill="#fff"/>
    <path id="Path_63" data-name="Path 63" d="M60.475,33H47.3A3.3,3.3,0,0,0,44,36.3v13.18a3.3,3.3,0,0,0,3.3,3.3h13.18a3.3,3.3,0,0,0,3.3-3.3v-2.2a1.1,1.1,0,1,0-2.2,0v2.2a1.1,1.1,0,0,1-1.1,1.1H47.3a1.1,1.1,0,0,1-1.1-1.1V36.3a1.1,1.1,0,0,1,1.1-1.1h13.18a1.1,1.1,0,0,1,1.1,1.1v6.59a1.1,1.1,0,0,0,2.2,0V36.3a3.3,3.3,0,0,0-3.3-3.3Z" transform="translate(4.131 3.148)" fill="#fff"/>
    <path id="Path_64" data-name="Path 64" d="M24.516,14.622a1.093,1.093,0,0,0,1.076.044l6.59-3.3a1.1,1.1,0,0,0,0-1.955l-6.59-3.3A1.1,1.1,0,0,0,24,7.1v6.59A1.1,1.1,0,0,0,24.516,14.622ZM26.2,8.877l3.031,1.516L26.2,11.909Z" transform="translate(2.164 0.492)" fill="#fff"/>
    <path id="Path_65" data-name="Path 65" d="M27.885,20.77A9.885,9.885,0,1,0,18,10.885,9.885,9.885,0,0,0,27.885,20.77Zm0-17.574A7.689,7.689,0,1,1,20.2,10.885,7.689,7.689,0,0,1,27.885,3.2Z" transform="translate(1.574)" fill="#fff"/>
    <path id="Path_66" data-name="Path 66" d="M37.1,23.59a1.1,1.1,0,0,0,.879-.439l3.3-4.393a1.1,1.1,0,1,0-1.757-1.318l-3.3,4.393A1.1,1.1,0,0,0,37.1,23.59Z" transform="translate(3.344 1.574)" fill="#fff"/>
    <path id="Path_67" data-name="Path 67" d="M39.22,27.052a1.1,1.1,0,0,0,1.538.22l4.393-3.3a1.1,1.1,0,0,0-1.318-1.757l-4.393,3.3a1.1,1.1,0,0,0-.22,1.538Z" transform="translate(3.639 2.066)" fill="#fff"/>
    <path id="Path_68" data-name="Path 68" d="M49.7,28.881A1.1,1.1,0,0,0,48.381,28l-5.492,1.1a1.1,1.1,0,0,0,.22,2.2h.22l5.492-1.1a1.1,1.1,0,0,0,.879-1.318Z" transform="translate(3.924 2.653)" fill="#fff"/>
    <path id="Path_69" data-name="Path 69" d="M3.1,30.77h13.18a1.1,1.1,0,0,0,1.1-1.1V12.1a1.1,1.1,0,0,0-1.1-1.1H3.1A1.1,1.1,0,0,0,2,12.1V29.672A1.1,1.1,0,0,0,3.1,30.77ZM4.2,13.2H15.18V28.574H4.2Z" transform="translate(0 0.984)" fill="#fff"/>
    <path id="Path_70" data-name="Path 70" d="M11.3,15H9.1a1.1,1.1,0,1,0,0,2.2h2.2a1.1,1.1,0,1,0,0-2.2Z" transform="translate(0.59 1.377)" fill="#fff"/>
    <path id="Path_71" data-name="Path 71" d="M11.492,19H7.1a1.1,1.1,0,0,0,0,2.2h4.393a1.1,1.1,0,1,0,0-2.2Z" transform="translate(0.393 1.77)" fill="#fff"/>
    <path id="Path_72" data-name="Path 72" d="M11.492,23H7.1a1.1,1.1,0,0,0,0,2.2h4.393a1.1,1.1,0,1,0,0-2.2Z" transform="translate(0.393 2.164)" fill="#fff"/>
    <path id="Path_73" data-name="Path 73" d="M38.784,29.26a1.1,1.1,0,0,0-1.911,1.1l4.844,8.38-17.574,6.59h-.165l-2.856,1.648-1.9,1.1a2.193,2.193,0,0,1-3-.8l-2.2-3.8a2.2,2.2,0,0,1,.824-2.9l3.8-2.2L21.4,43.133a1.1,1.1,0,1,0,1.911-1.1l-2.834-4.9L34.259,25.768l.45.78a1.1,1.1,0,0,0,1.911-1.1l-1.1-1.9a1.113,1.113,0,0,0-1.659-.3L18.487,35.927l-4.679,2.7A4.393,4.393,0,0,0,11.787,43.6l-1.1.626a3.293,3.293,0,0,0,1.648,6.151,3.361,3.361,0,0,0,1.648-.439l1.1-.626A4.262,4.262,0,0,0,17,50.459a4.163,4.163,0,0,0,1.153.154,4.328,4.328,0,0,0,2.2-.593l.956-.549,2.2,3.811a3.292,3.292,0,1,0,5.7-3.3l-2-3.482,16.475-6.184a1.1,1.1,0,0,0,.571-1.571ZM12.841,48.031a1.1,1.1,0,1,1-1.1-1.9l.956-.549,1.1,1.9ZM27.3,51.107a1.1,1.1,0,0,1-1.9,1.1l-2.2-3.811,1.823-1.043h.088Z" transform="translate(0.692 2.164)" fill="#fff"/>
  </g>
</svg>
