<svg xmlns="http://www.w3.org/2000/svg" width="66.135" height="67" viewBox="0 0 66.135 67">
  <g id="commerce-and-shopping" transform="translate(-0.199)">
    <path id="Path_74" data-name="Path 74" d="M55.605,0A31.463,31.463,0,0,0,24.2,31.406a24.885,24.885,0,0,0,.11,2.865l2.2-.221a21.211,21.211,0,0,1-.11-2.645,29.2,29.2,0,1,1,30.3,29.2l2.425-2.425-1.543-1.543-5.18,5.18L57.589,67l1.543-1.543-2.645-2.645A31.412,31.412,0,0,0,55.605,0Zm0,0" transform="translate(-20.694)" fill="#fff"/>
    <path id="Path_75" data-name="Path 75" d="M151.87,96H112.2v19.836H151.87Zm-2.2,17.632H114.4V98.2h35.263Zm0,0" transform="translate(-96.572 -82.776)" fill="#fff"/>
    <path id="Path_76" data-name="Path 76" d="M228.607,144.816a4.408,4.408,0,1,0-4.408-4.408A4.421,4.421,0,0,0,228.607,144.816Zm0-6.612a2.2,2.2,0,1,1-2.2,2.2A2.21,2.21,0,0,1,228.607,138.2Zm0,0" transform="translate(-193.145 -117.266)" fill="#fff"/>
    <path id="Path_77" data-name="Path 77" d="M146.4,130.2h2.2V128H144.2v4.408h2.2Zm0,0" transform="translate(-124.165 -110.368)" fill="#fff"/>
    <path id="Path_78" data-name="Path 78" d="M148.607,178.2h-2.2V176h-2.2v4.408h4.408Zm0,0" transform="translate(-124.165 -151.756)" fill="#fff"/>
    <path id="Path_79" data-name="Path 79" d="M340.607,176h-2.2v2.2h-2.2v2.2h4.408Zm0,0" transform="translate(-289.717 -151.756)" fill="#fff"/>
    <path id="Path_80" data-name="Path 80" d="M338.4,132.408h2.2V128H336.2v2.2h2.2Zm0,0" transform="translate(-289.717 -110.368)" fill="#fff"/>
    <path id="Path_81" data-name="Path 81" d="M184.2,160H187.5v2.2H184.2Zm0,0" transform="translate(-158.655 -137.96)" fill="#fff"/>
    <path id="Path_82" data-name="Path 82" d="M304.2,160H307.5v2.2H304.2Zm0,0" transform="translate(-262.125 -137.96)" fill="#fff"/>
    <path id="Path_83" data-name="Path 83" d="M48.2,344h2.2v3.306H48.2Zm0,0" transform="translate(-41.388 -296.615)" fill="#fff"/>
    <path id="Path_84" data-name="Path 84" d="M55.3,271.324a4.14,4.14,0,0,0-4.077-4.077,3.761,3.761,0,0,0-1.1.11l-13.334,3.857c-.11,0-.331.11-.441,0l-3.086-.551a4.5,4.5,0,0,0,1.763-5.951,4.325,4.325,0,0,0-3.857-2.314H17.279a3.107,3.107,0,0,0-1.653.441l-2.2,1.432v-1.653H.2v18.734H13.423V278.6l10.909,4.518a3.055,3.055,0,0,0,2.2.11l25.787-8.045a3.908,3.908,0,0,0,2.975-3.857Zm-44.079,7.824H2.4V264.823H6.811v6.612h2.2v-6.612h2.2Zm14.766,1.983a.94.94,0,0,1-.771,0l-11.791-4.959v-9.367l3.306-1.873a.825.825,0,0,1,.551-.11H31.054a2.2,2.2,0,0,1,0,4.408H23.34v1.1l-.22,1.1,12.673,2.094a3.169,3.169,0,0,0,1.432-.11l13.334-3.857a1.881,1.881,0,0,1,2.314,1.323,1.817,1.817,0,0,1-1.212,2.314Zm0,0" transform="translate(0 -226.254)" fill="#fff"/>
  </g>
</svg>
