<svg id="graphic-tool" xmlns="http://www.w3.org/2000/svg" width="65.931" height="65.931" viewBox="0 0 65.931 65.931">
  <path id="Path_120" data-name="Path 120" d="M307.288,346a1.288,1.288,0,1,0,1.288,1.288A1.288,1.288,0,0,0,307.288,346Zm0,0" transform="translate(-266.596 -301.445)" fill="#fff"/>
  <path id="Path_121" data-name="Path 121" d="M59.493,0H6.439A6.446,6.446,0,0,0,0,6.439v39.4a6.446,6.446,0,0,0,6.439,6.439H26.527V58.2H25.239A6.44,6.44,0,0,0,18.8,64.643a1.288,1.288,0,0,0,1.288,1.288H45.843a1.288,1.288,0,0,0,1.288-1.288A6.446,6.446,0,0,0,40.692,58.2H39.4V52.281H59.493a6.446,6.446,0,0,0,6.439-6.439V6.439A6.446,6.446,0,0,0,59.493,0ZM6.439,2.575H59.493a3.867,3.867,0,0,1,3.863,3.863V39.4H57.432V9.787A1.288,1.288,0,0,0,56.144,8.5h-10.3a1.288,1.288,0,0,0-1.288,1.288V39.4H38.109c-.014-1.332-.048-2.645-.1-3.918A82.828,82.828,0,0,0,37,25.183a6.439,6.439,0,0,0,1.758-8.4l-4.463-7.73a1.288,1.288,0,0,0-2.23,0L27.6,16.785a6.438,6.438,0,0,0,1.417,8.126A81.743,81.743,0,0,0,27.93,35.483c-.058,1.287-.095,2.6-.109,3.921H21.376V20.088a1.281,1.281,0,0,0-.127-.556c0-.007-.006-.014-.009-.02l-5.151-10.3a1.288,1.288,0,0,0-2.3,0l-5.151,10.3c0,.007-.005.014-.008.02a1.28,1.28,0,0,0-.128.556V39.4H2.575V6.439A3.867,3.867,0,0,1,6.439,2.575ZM47.13,39.4V11.074h7.726V13.65H53.569a1.288,1.288,0,1,0,0,2.575h1.288v3.863H53.569a1.288,1.288,0,1,0,0,2.575h1.288v3.863H53.569a1.288,1.288,0,1,0,0,2.575h1.288v5.151H53.569a1.288,1.288,0,1,0,0,2.575h1.288V39.4ZM33.179,26.438a6.448,6.448,0,0,0,1.389-.154c.239,1.532.59,4.242.8,7.97H30.573c.218-3.725.586-6.478.84-8.061a6.447,6.447,0,0,0,1.767.246Zm0-2.575a3.868,3.868,0,0,1-3.35-5.791l3.35-5.8,3.348,5.8a3.865,3.865,0,0,1-3.348,5.791ZM30.455,36.829H35.48c.027.846.046,1.707.055,2.575H30.4c.01-.863.029-1.724.058-2.575ZM16.225,39.4V21.376H18.8V39.4Zm-5.151,0V21.376H13.65V39.4Zm.8-20.6,3.067-6.135L18,18.8ZM44.334,63.356H21.6a3.871,3.871,0,0,1,3.644-2.575H40.692a3.869,3.869,0,0,1,3.642,2.575ZM36.829,58.2H29.1V52.281h7.726Zm22.664-8.5H6.438a3.867,3.867,0,0,1-3.863-3.863V41.98h60.78v3.863A3.867,3.867,0,0,1,59.492,49.706Zm0,0" fill="#fff"/>
  <path id="Path_122" data-name="Path 122" d="M215.014,346h-7.726a1.288,1.288,0,0,0,0,2.575h7.726a1.288,1.288,0,0,0,0-2.575Zm0,0" transform="translate(-179.473 -301.445)" fill="#fff"/>
</svg>
