<svg xmlns="http://www.w3.org/2000/svg" width="59.159" height="66.702" viewBox="0 0 59.159 66.702">
  <g id="healthcare-and-medical" transform="translate(-28.952)">
    <g id="Group_63" data-name="Group 63" transform="translate(28.952)">
      <path id="Path_87" data-name="Path 87" d="M88.069,63.287,85.118,46.012a4.917,4.917,0,0,0-3.446-3.9l-7.959-2.4A8.877,8.877,0,0,0,67.553,32c.252-.28.486-.558.7-.831A15.448,15.448,0,0,0,71.417,24.3h.614a2.9,2.9,0,0,0,2.9-2.9V19.919a2.916,2.916,0,0,0-1.5-2.533v-3.57a.977.977,0,1,0-1.954,0v4.008a6.021,6.021,0,0,0-1.3.376.981.981,0,0,0-.138.061c-.1.048-.21.1-.314.155V10.544A3.948,3.948,0,0,0,65.778,6.6h-2.7a4.052,4.052,0,0,0-2.558.913l-.265.216a2.729,2.729,0,0,1-3.454,0l-.264-.216A4.053,4.053,0,0,0,53.982,6.6h-2.7a3.948,3.948,0,0,0-3.944,3.944v7.872c-.1-.057-.21-.107-.314-.155a.979.979,0,0,0-.137-.061,6.023,6.023,0,0,0-1.3-.376V7.69a5.743,5.743,0,0,1,5.736-5.736H65.736A5.743,5.743,0,0,1,71.472,7.69V9.225a.977.977,0,1,0,1.954,0V7.69A7.7,7.7,0,0,0,65.736,0H51.327a7.7,7.7,0,0,0-7.69,7.69v9.7a2.916,2.916,0,0,0-1.5,2.533V21.4a2.9,2.9,0,0,0,2.9,2.9h.614a15.447,15.447,0,0,0,3.164,6.869c.214.272.448.551.7.83a8.909,8.909,0,0,0-6.159,7.71l-7.959,2.4a4.917,4.917,0,0,0-3.446,3.9l-1.2,7.015a.977.977,0,0,0,1.926.329l1.2-7.015a2.974,2.974,0,0,1,2.085-2.36l7.361-2.221v1.932A4.887,4.887,0,0,0,39.6,46.767a4.954,4.954,0,0,0-.29,1.326L38.6,57.225A2.483,2.483,0,0,0,41.076,59.9h1.218a.977.977,0,1,0,0-1.954H41.076a.529.529,0,0,1-.527-.57l.711-9.132a3,3,0,0,1,.176-.8A2.954,2.954,0,0,1,44.2,45.559h.183a2.927,2.927,0,0,1,2.727,1.749,3,3,0,0,1,.229.938l.712,9.132a.529.529,0,0,1-.528.57H46.306a.977.977,0,1,0,0,1.954h1.218A2.483,2.483,0,0,0,50,57.225l-.712-9.132a4.947,4.947,0,0,0-.378-1.548,4.836,4.836,0,0,0-3.64-2.86V41.17l3.358-1.013c.306.643.911,2.034,2.11,5.031,1.209,3.024,2.711,6.9,4.152,10.669a.992.992,0,0,0,.035.093c.961,2.516,1.894,4.98,2.692,7.105a.977.977,0,0,0,1.829,0c.8-2.126,1.73-4.59,2.692-7.105a.973.973,0,0,0,.035-.093c1.44-3.766,2.941-7.64,4.149-10.664,1.2-3,1.807-4.393,2.112-5.037l3.358,1.013v5.769a5.053,5.053,0,1,0,1.954,0V41.759l7.362,2.221a2.974,2.974,0,0,1,2.085,2.36l2.951,17.275a.97.97,0,0,1-.956,1.133H31.876a.97.97,0,0,1-.956-1.133l.974-5.7a.977.977,0,0,0-1.926-.329l-.974,5.7A2.923,2.923,0,0,0,31.876,66.7H85.187a2.923,2.923,0,0,0,2.882-3.416ZM71.484,19.814a4.192,4.192,0,0,1,.943-.127,1,1,0,0,0,.477-.113.925.925,0,0,1,.069.346V21.4a.944.944,0,0,1-.943.943h-.547Zm-25.9,2.532h-.547a.944.944,0,0,1-.943-.943V19.919a.927.927,0,0,1,.069-.346,1,1,0,0,0,.477.113,4.354,4.354,0,0,1,.943.128Zm1.954,1.1V20.875a1.371,1.371,0,0,0,1.762-1.314V10.544a1.993,1.993,0,0,1,1.99-1.99h2.7a2.094,2.094,0,0,1,1.322.471l.264.216a4.683,4.683,0,0,0,5.927,0l.264-.216a2.094,2.094,0,0,1,1.322-.471h2.7a1.993,1.993,0,0,1,1.99,1.99v9.017a1.371,1.371,0,0,0,1.762,1.315v2.565a12.633,12.633,0,0,1-2.813,6.52,12.878,12.878,0,0,1-2.341,2.32.979.979,0,0,0-.087.066,9.521,9.521,0,0,1-11.515,0,.991.991,0,0,0-.087-.066,12.888,12.888,0,0,1-2.341-2.32A12.634,12.634,0,0,1,47.533,23.442Zm17.4,15.781-6.4,4.783-6.4-4.783a4.632,4.632,0,0,0,.99-2.766V34.882a11.471,11.471,0,0,0,10.818,0v1.575A4.632,4.632,0,0,0,64.931,39.223ZM50.5,38.133a2.671,2.671,0,0,0-1.647-.083l-.07.019L45.41,39.087a6.939,6.939,0,0,1,5.759-5.473v2.843A2.583,2.583,0,0,1,50.5,38.133Zm2.651,7.841-.005-.014L53,45.589l-.026-.066-.141-.355-.01-.025q-.217-.546-.418-1.047l-.029-.073-.114-.284-.041-.1-.108-.268-.032-.078-.19-.467-.05-.123-.072-.175-.076-.186-.029-.07-.022-.053q-.169-.411-.322-.775l0-.006-.158-.376-.078-.184,5.5,4.113-2.3.977-.012.005-.96.408Zm2.331,5.981q-.289-.751-.582-1.507-.457-1.18-.874-2.247l.365-.155,1.489,1.731Zm3.067,7.939a.973.973,0,0,0-.1-.164c-.441-1.167-1-2.643-1.622-4.267l.912-4.993h1.581l.912,4.993C59.584,57.164,59,58.7,58.55,59.893Zm1.138-11.377H57.374l-1.095-1.273,2.252-.957,2.252.957Zm2.473,1.931q-.292.755-.582,1.507l-.4-2.178,1.489-1.731.365.155Q62.618,49.269,62.161,50.447ZM65.9,41.061l-.15.356-.02.048-.156.374-.011.026-.141.343-.026.064-.033.08-.065.158-.081.2-.027.065-.209.515-.033.083-.107.266-.042.105-.113.281-.032.08q-.2.495-.413,1.032l-.014.035-.14.352-.026.067-.148.373,0,.007-.163.412-.961-.408-.01,0-2.3-.977,5.5-4.113Zm2.375-2.992h0a2.669,2.669,0,0,0-1.714.065,2.582,2.582,0,0,1-.667-1.676V33.612a6.885,6.885,0,0,1,5.762,5.475ZM75.859,51.9a3.1,3.1,0,1,1-3.1-3.1A3.1,3.1,0,0,1,75.859,51.9Z" transform="translate(-28.952)" fill="#fff"/>
    </g>
  </g>
</svg>
