<svg id="vector" xmlns="http://www.w3.org/2000/svg" width="66.862" height="66.862" viewBox="0 0 66.862 66.862">
  <g id="Group_26" data-name="Group 26">
    <g id="Group_25" data-name="Group 25">
      <path id="Path_44" data-name="Path 44" d="M116.56,71.993l.852.71c.06.051,6.082,5.2,6.082,16.427v6.526a4.825,4.825,0,0,0,0,9.6v6.526h21.568v-6.526a4.825,4.825,0,0,0,0-9.6V89.129c0-11.162,6.024-16.377,6.082-16.427l.852-.71L134.278,51.912Zm20.954,5.273a3.235,3.235,0,1,1-3.235-3.235A3.239,3.239,0,0,1,137.514,77.267Zm5.392,32.353H125.651v-4.314h17.255Zm4.314-9.167a2.7,2.7,0,0,1-2.7,2.7h-20.49a2.7,2.7,0,1,1,0-5.392h20.49A2.7,2.7,0,0,1,147.22,100.453ZM135.357,56.394l13.61,15.425c-1.814,1.927-6.061,7.487-6.061,17.311V95.6H125.651V89.129c0-9.823-4.247-15.384-6.061-17.311L133.2,56.394v15.59a5.392,5.392,0,1,0,2.157,0Z" transform="translate(-100.847 -44.914)" fill="#fff"/>
      <path id="Path_45" data-name="Path 45" d="M66.862,6.471V0H60.392V2.157H6.471V0H0V6.471H6.471V4.314h15.57A31.321,31.321,0,0,0,2.184,32.353H0v6.471H6.471V32.353H4.341a29.11,29.11,0,0,1,58.181,0h-2.13v6.471h6.471V32.353H64.678A31.321,31.321,0,0,0,44.821,4.314h15.57V6.471ZM62.548,2.157h2.157V4.314H62.548ZM4.314,4.314H2.157V2.157H4.314Zm0,32.353H2.157V34.51H4.314ZM62.548,34.51h2.157v2.157H62.548Z" fill="#fff"/>
    </g>
  </g>
</svg>
