<svg xmlns="http://www.w3.org/2000/svg" width="56.008" height="55.992" viewBox="0 0 56.008 55.992">
  <g id="project-management" transform="translate(0 -0.067)">
    <g id="Group_103" data-name="Group 103" transform="translate(0 0.298)">
      <g id="Group_102" data-name="Group 102" transform="translate(0)">
        <path id="Path_128" data-name="Path 128" d="M55.21,16.525h0l0,0-3.615-.516a.929.929,0,0,1-.427-1.664l2.922-2.191a.929.929,0,0,0,.186-1.3L50.929,6.391a.929.929,0,0,0-1.3-.186L46.707,8.4a.929.929,0,0,1-1.481-.875l.517-3.615a.929.929,0,0,0-.788-1.052h0l-5.517-.788a.929.929,0,0,0-1.052.788h0L37.868,6.47A.929.929,0,0,1,36.2,6.9l-2.19-2.922a.929.929,0,0,0-1.3-.186l-2.793,2.1a17.981,17.981,0,0,0-3.8,0A17.657,17.657,0,0,0,10.55,21.717c-.025.263-.034.524-.047.785h-.279a.929.929,0,0,0-.909.743L8.673,26.3,6.1,24.526a.929.929,0,0,0-1.185.108L2.127,27.421a.929.929,0,0,0-.108,1.184l1.766,2.568L.73,31.815a.929.929,0,0,0-.73.91v3.717a.929.929,0,0,0,.738.91l3.055.642L2.027,40.562a.929.929,0,0,0,.108,1.184l2.788,2.788a.929.929,0,0,0,1.185.108l2.568-1.77.642,3.055a.929.929,0,0,0,.909.743h3.717a.929.929,0,0,0,.91-.738l.642-3.055,2.568,1.766a.929.929,0,0,0,1.184-.108l1.443-1.448v2.649a3.705,3.705,0,0,0,1.859,3.2V54.1a3.717,3.717,0,0,0,3.717,3.717h3.717A3.717,3.717,0,0,0,33.7,54.1V48.937a3.705,3.705,0,0,0,1.859-3.2V42.058a4.554,4.554,0,0,1,2.15-3.794A17.835,17.835,0,0,0,39.9,36.591l-1.24-1.385A15.821,15.821,0,0,1,36.7,36.7a6.4,6.4,0,0,0-3,5.354v3.678a1.859,1.859,0,0,1-1.859,1.859H24.408a1.859,1.859,0,0,1-1.859-1.859V41.98A6.253,6.253,0,0,0,19.6,36.735,15.751,15.751,0,0,1,27.926,7.647a1.01,1.01,0,0,0-.036.1.929.929,0,0,0,.178.689l2.19,2.921a.91.91,0,0,1,.056,1.032.924.924,0,0,1-.929.447l-3.615-.517a.929.929,0,0,0-1.052.788h0l-.789,5.519a.929.929,0,0,0,.788,1.052h0l3.615.517a.929.929,0,0,1,.427,1.664l-2.921,2.19a.929.929,0,0,0-.186,1.3L29,29.813A.929.929,0,0,0,30.3,30l2.922-2.19a.929.929,0,0,1,1.477.875L34.181,32.3a.929.929,0,0,0,.788,1.052h0l5.52.789a1.03,1.03,0,0,0,.131.008.929.929,0,0,0,.921-.8l.516-3.615a.929.929,0,0,1,1.664-.427l2.191,2.921a.929.929,0,0,0,1.3.186l4.461-3.346a.929.929,0,0,0,.186-1.3l-2.19-2.921a.913.913,0,0,1-.056-1.032.9.9,0,0,1,.929-.446l3.615.516A.929.929,0,0,0,55.21,23.1h0L56,17.577A.929.929,0,0,0,55.21,16.525Zm-30.8,32.928h7.435v1.859H24.408Zm0,3.717h7.435V54.1a1.859,1.859,0,0,1-1.859,1.859H26.267A1.859,1.859,0,0,1,24.408,54.1Zm-7.4-16.026A17.566,17.566,0,0,0,18.6,38.3a4.536,4.536,0,0,1,1.873,2.378l-1.993,1.99-1.93-1.331a1.859,1.859,0,0,0-2.874,1.148l-.487,2.321H10.977L10.49,42.49a1.859,1.859,0,0,0-2.874-1.148L5.686,42.669,3.992,40.98l1.33-1.929a1.859,1.859,0,0,0-1.147-2.874l-2.317-.488V33.48l2.317-.488a1.859,1.859,0,0,0,1.148-2.869L3.992,28.188,5.686,26.5l1.932,1.331a1.859,1.859,0,0,0,2.873-1.149l.163-.773a17.7,17.7,0,0,0,.737,3.151,5.576,5.576,0,1,0,5.62,8.085Zm-1.443-1.309a3.712,3.712,0,1,1-3.485-4.968h.035A17.6,17.6,0,0,0,15.566,35.835ZM53.5,21.911l-2.7-.385a2.788,2.788,0,0,0-2.624,4.433l1.633,2.177-2.974,2.23L45.2,28.191a2.788,2.788,0,0,0-4.991,1.278l-.376,2.7-3.679-.526.385-2.7a2.788,2.788,0,0,0-4.433-2.625L29.93,27.954,27.7,24.98l2.177-1.634A2.788,2.788,0,0,0,28.6,18.356l-2.7-.385.526-3.679,2.7.385a2.788,2.788,0,0,0,2.625-4.433L30.111,8.064l2.974-2.23,1.634,2.177A2.788,2.788,0,0,0,39.71,6.733l.385-2.7,3.679.525-.385,2.7a2.788,2.788,0,0,0,4.433,2.624L50,8.25l2.23,2.974-2.177,1.634a2.788,2.788,0,0,0,1.278,4.991l2.7.385Z" transform="translate(0 -2.057)" fill="#f60"/>
      </g>
    </g>
    <g id="Group_105" data-name="Group 105" transform="translate(32.527 8.908)">
      <g id="Group_104" data-name="Group 104">
        <path id="Path_129" data-name="Path 129" d="M287.435,76.171a7.435,7.435,0,1,0,7.435,7.435A7.435,7.435,0,0,0,287.435,76.171Zm0,13.011a5.576,5.576,0,1,1,5.576-5.576A5.576,5.576,0,0,1,287.435,89.182Z" transform="translate(-280 -76.171)" fill="#f60"/>
      </g>
    </g>
    <g id="Group_107" data-name="Group 107" transform="translate(27.196 41.189)">
      <g id="Group_106" data-name="Group 106">
        <rect id="Rectangle_51" data-name="Rectangle 51" width="1.859" height="2.788" fill="#f60"/>
      </g>
    </g>
    <g id="Group_109" data-name="Group 109" transform="translate(15.107 10.664)">
      <g id="Group_108" data-name="Group 108">
        <path id="Path_130" data-name="Path 130" d="M139,112.689a11.152,11.152,0,0,1-1.883-19.826l-.993-1.572a13.011,13.011,0,0,0,2.2,23.128,5.933,5.933,0,0,1,3.81,5.539h1.859A7.776,7.776,0,0,0,139,112.689Z" transform="translate(-130.044 -91.291)" fill="#f60"/>
      </g>
    </g>
    <g id="Group_111" data-name="Group 111" transform="translate(45.783 34.684)">
      <g id="Group_110" data-name="Group 110">
        <rect id="Rectangle_52" data-name="Rectangle 52" width="6.505" height="1.859" fill="#f60"/>
      </g>
    </g>
    <g id="Group_113" data-name="Group 113" transform="translate(44.259 39.545)">
      <g id="Group_112" data-name="Group 112" transform="translate(0 0)">
        <rect id="Rectangle_53" data-name="Rectangle 53" width="1.859" height="7.258" transform="matrix(0.64, -0.768, 0.768, 0.64, 0, 1.428)" fill="#f60"/>
      </g>
    </g>
    <g id="Group_115" data-name="Group 115" transform="translate(40.207 42.118)">
      <g id="Group_114" data-name="Group 114">
        <rect id="Rectangle_54" data-name="Rectangle 54" width="1.859" height="6.505" fill="#f60"/>
      </g>
    </g>
    <g id="Group_117" data-name="Group 117" transform="translate(0.949 14.265)">
      <g id="Group_116" data-name="Group 116" transform="translate(0 0)">
        <rect id="Rectangle_55" data-name="Rectangle 55" width="7.663" height="1.858" transform="translate(0 1.858) rotate(-14.035)" fill="#f60"/>
      </g>
    </g>
    <g id="Group_119" data-name="Group 119" transform="translate(2.493 5.119)">
      <g id="Group_118" data-name="Group 118" transform="translate(0 0)">
        <rect id="Rectangle_56" data-name="Rectangle 56" width="1.858" height="7.994" transform="matrix(0.581, -0.814, 0.814, 0.581, 0, 1.512)" fill="#f60"/>
      </g>
    </g>
    <g id="Group_121" data-name="Group 121" transform="translate(10.455 0.067)">
      <g id="Group_120" data-name="Group 120" transform="translate(0)">
        <rect id="Rectangle_57" data-name="Rectangle 57" width="1.859" height="7.674" transform="matrix(0.969, -0.248, 0.248, 0.969, 0, 0.46)" fill="#f60"/>
      </g>
    </g>
  </g>
</svg>
