<svg xmlns="http://www.w3.org/2000/svg" width="64.541" height="64.541" viewBox="0 0 64.541 64.541">
  <g id="shop" transform="translate(-1 -1)">
    <path id="Path_88" data-name="Path 88" d="M54.328,19H46v6.246h8.328Zm-2.082,4.164H48.082V21.082h4.164Z" transform="translate(1.844 0.738)" fill="#fff"/>
    <path id="Path_89" data-name="Path 89" d="M60.336,28.066v-10.6a3.119,3.119,0,0,0,2.082-2.931V12.451L59.029,1H32.5L29.15,12.152l-.044,2.381a3.119,3.119,0,0,0,2.082,2.931v10.6H22.137a11.451,11.451,0,1,0-13.127,0H6.2a5.211,5.211,0,0,0-5.2,5.2V60.336a5.211,5.211,0,0,0,5.2,5.2H60.336a5.211,5.211,0,0,0,5.2-5.2V33.271A5.211,5.211,0,0,0,60.336,28.066ZM59.3,15.574H53.049a1.042,1.042,0,0,1-1.041-1.041V13.492h8.328v1.041A1.042,1.042,0,0,1,59.3,15.574Zm-9.369-1.041a1.042,1.042,0,0,1-1.041,1.041H42.639A1.042,1.042,0,0,1,41.6,14.533V13.492h8.328Zm-10.41,0a1.042,1.042,0,0,1-1.041,1.041H32.23a1.042,1.042,0,0,1-1.041-1.041V13.492h8.328Zm2.191-3.123.833-8.328h6.444l.837,8.328Zm18.27,0H51.909l-.833-8.328h6.4ZM34.045,3.082h6.4L39.62,11.41H31.547Zm-.774,14.574h5.2a3.1,3.1,0,0,0,2.082-.812,3.1,3.1,0,0,0,2.082.812h6.246a3.1,3.1,0,0,0,2.082-.812,3.1,3.1,0,0,0,2.082.812h5.2v10.41H45.762V19.738H35.353v8.328H33.271Zm10.41,10.41H37.435V21.82H43.68ZM6.2,18.7a9.369,9.369,0,1,1,9.369,9.369A9.38,9.38,0,0,1,6.2,18.7ZM63.459,60.336a3.127,3.127,0,0,1-3.123,3.123H6.2a3.127,3.127,0,0,1-3.123-3.123V33.271A3.127,3.127,0,0,1,6.2,30.148H60.336a3.127,3.127,0,0,1,3.123,3.123Z" transform="translate(0)" fill="#fff"/>
    <path id="Path_90" data-name="Path 90" d="M54.8,31H11.082A2.084,2.084,0,0,0,9,33.082V58.066a2.084,2.084,0,0,0,2.082,2.082H54.8a2.084,2.084,0,0,0,2.082-2.082V33.082A2.084,2.084,0,0,0,54.8,31Zm0,27.066H11.082V33.082H54.8Z" transform="translate(0.328 1.23)" fill="#fff"/>
    <path id="Path_91" data-name="Path 91" d="M57,40h2.082V50.41H57Z" transform="translate(2.295 1.598)" fill="#fff"/>
    <path id="Path_92" data-name="Path 92" d="M5,48H7.082v2.082H5Z" transform="translate(0.164 1.926)" fill="#fff"/>
    <path id="Path_93" data-name="Path 93" d="M5,40H7.082v6.246H5Z" transform="translate(0.164 1.598)" fill="#fff"/>
    <path id="Path_94" data-name="Path 94" d="M16.123,41.246h3.856L21.2,49.8a3.121,3.121,0,1,0,4.29,2.892,3.088,3.088,0,0,0-.192-1.041h6.63a3.063,3.063,0,0,0-.193,1.041,3.123,3.123,0,1,0,4.42-2.833l1.786-6.251.04-2.367h-15.9l-.509-3.565A3.139,3.139,0,0,0,18.482,35H16.123a3.123,3.123,0,0,0,0,6.246ZM23.41,52.7a1.041,1.041,0,1,1-1.041-1.041A1.041,1.041,0,0,1,23.41,52.7Zm11.451,1.041A1.041,1.041,0,1,1,35.9,52.7,1.041,1.041,0,0,1,34.861,53.738Zm1-10.41-1.785,6.246h-10.8l-.892-6.246ZM16.123,37.082h2.359a1.045,1.045,0,0,1,1.03.893l.17,1.189H16.123a1.041,1.041,0,0,1,0-2.082Z" transform="translate(0.492 1.394)" fill="#fff"/>
    <path id="Path_95" data-name="Path 95" d="M16.2,15.164A1.042,1.042,0,0,1,17.246,16.2h2.082A3.127,3.127,0,0,0,16.2,13.082V11H14.123v2.082H11V16.2a3.127,3.127,0,0,0,3.123,3.123H16.2a1.042,1.042,0,0,1,1.041,1.041V21.41H14.123a1.042,1.042,0,0,1-1.041-1.041H11a3.127,3.127,0,0,0,3.123,3.123v2.082H16.2V23.492h3.123V20.369A3.127,3.127,0,0,0,16.2,17.246H14.123A1.042,1.042,0,0,1,13.082,16.2V15.164Z" transform="translate(0.41 0.41)" fill="#fff"/>
    <path id="Path_96" data-name="Path 96" d="M51.492,35H39V47.492H51.492ZM49.41,45.41H41.082V37.082H49.41Z" transform="translate(1.557 1.394)" fill="#fff"/>
    <path id="Path_97" data-name="Path 97" d="M49,49h2.082v6.246H49Z" transform="translate(1.967 1.967)" fill="#fff"/>
    <path id="Path_98" data-name="Path 98" d="M45,49h2.082v6.246H45Z" transform="translate(1.803 1.967)" fill="#fff"/>
    <path id="Path_99" data-name="Path 99" d="M41,49h2.082v6.246H41Z" transform="translate(1.639 1.967)" fill="#fff"/>
  </g>
</svg>
