<svg xmlns="http://www.w3.org/2000/svg" width="67.725" height="67.725" viewBox="0 0 67.725 67.725">
  <g id="smartphone" transform="translate(-1 -1)">
    <path id="Path_111" data-name="Path 111" d="M31,5h6.554V7.185H31Z" transform="translate(2.77 0.369)" fill="#fff"/>
    <path id="Path_112" data-name="Path 112" d="M27,5h2.185V7.185H27Z" transform="translate(2.401 0.369)" fill="#fff"/>
    <path id="Path_113" data-name="Path 113" d="M21.825,53h-.64A2.187,2.187,0,0,0,19,55.185v2.185a2.187,2.187,0,0,0,2.185,2.185h.64a2.17,2.17,0,0,0,1.545-.64l2.637-2.637L23.369,53.64A2.17,2.17,0,0,0,21.825,53Zm0,4.369h-.64V55.185h.64l1.092,1.092Z" transform="translate(1.662 4.801)" fill="#fff"/>
    <path id="Path_114" data-name="Path 114" d="M33.369,53H31.185A2.187,2.187,0,0,0,29,55.185v2.185a2.187,2.187,0,0,0,2.185,2.185h2.185a2.187,2.187,0,0,0,2.185-2.185V55.185A2.187,2.187,0,0,0,33.369,53Zm-2.185,4.369V55.185h2.185v2.185Z" transform="translate(2.585 4.801)" fill="#fff"/>
    <path id="Path_115" data-name="Path 115" d="M43.408,53h-.64a2.17,2.17,0,0,0-1.545.64l-2.637,2.637,2.637,2.637a2.17,2.17,0,0,0,1.545.64h.64a2.187,2.187,0,0,0,2.185-2.185V55.185A2.187,2.187,0,0,0,43.408,53Zm-.64,4.369-1.092-1.092,1.092-1.092h.64v2.185Z" transform="translate(3.47 4.801)" fill="#fff"/>
    <path id="Path_116" data-name="Path 116" d="M26.662,32.831a9.831,9.831,0,1,0-9.831,9.831A9.843,9.843,0,0,0,26.662,32.831Zm-17.477,0a7.646,7.646,0,1,1,7.646,7.646A7.655,7.655,0,0,1,9.185,32.831Z" transform="translate(0.554 2.031)" fill="#fff"/>
    <path id="Path_117" data-name="Path 117" d="M21.923,32.462a5.462,5.462,0,1,0-5.462,5.462A5.468,5.468,0,0,0,21.923,32.462Zm-8.739,0a3.277,3.277,0,1,1,3.277,3.277A3.281,3.281,0,0,1,13.185,32.462Z" transform="translate(0.923 2.401)" fill="#fff"/>
    <path id="Path_118" data-name="Path 118" d="M55.617,22.847V6.462A5.468,5.468,0,0,0,50.155,1H19.57a5.468,5.468,0,0,0-5.462,5.462V18.477h-.849l-.779,3.061c-.348.13-.7.275-1.044.437l-2.72-1.617L2.881,26.194,4.5,28.912c-.161.346-.307.7-.437,1.044L1,30.737v8.253l3.061.779c.13.348.275.7.437,1.044l-1.617,2.72,5.835,5.835,2.72-1.617q.519.241,1.044.437l.779,3.06h.849V63.263a5.468,5.468,0,0,0,5.462,5.462H50.155a5.468,5.468,0,0,0,5.462-5.462v-14.2a13.108,13.108,0,0,0,0-26.216ZM66.54,35.955a10.861,10.861,0,0,1-1.852,6.076,9.771,9.771,0,0,0-5.38-5.354,5.462,5.462,0,1,0-7.384,0,9.771,9.771,0,0,0-5.38,5.354,10.921,10.921,0,1,1,20-6.076Zm-14.2-3.277a3.277,3.277,0,1,1,3.277,3.277A3.281,3.281,0,0,1,52.34,32.678ZM20.662,51.247h.849l.779-3.061c.348-.13.7-.275,1.044-.437l2.72,1.617,5.835-5.835-1.617-2.72q.241-.519.437-1.044l3.061-.779V30.735l-3.061-.779c-.13-.348-.275-.7-.437-1.044l1.617-2.719-5.835-5.835-2.72,1.617q-.519-.241-1.044-.437l-.779-3.061h-.849V11.923h28.4v12.7a13.077,13.077,0,0,0,0,22.668v6.143h-28.4ZM16.293,6.462A3.281,3.281,0,0,1,19.57,3.185H50.155a3.281,3.281,0,0,1,3.277,3.277V23.044a13.01,13.01,0,0,0-2.185.567V9.739H18.477v8.739H16.293ZM11.887,45.538l-.539-.277L9.06,46.621,5.627,43.188,6.988,40.9l-.277-.539a12.022,12.022,0,0,1-.769-1.838l-.185-.577-2.572-.655V32.435l2.571-.654.185-.577a12.079,12.079,0,0,1,.769-1.839l.277-.539L5.626,26.538,9.059,23.1l2.288,1.361.539-.277a12.022,12.022,0,0,1,1.838-.769l.577-.185.655-2.572h4.855l.654,2.571.577.185a11.977,11.977,0,0,1,1.838.769l.539.277L25.709,23.1l3.433,3.433-1.361,2.288.277.539a12.079,12.079,0,0,1,.769,1.839l.185.577,2.574.654v4.855l-2.571.654-.185.577a11.976,11.976,0,0,1-.769,1.838l-.277.539,1.361,2.288-3.433,3.433-2.288-1.361-.539.277a12.022,12.022,0,0,1-1.838.769l-.577.185-.655,2.574H14.958L14.3,46.491l-.577-.185A11.988,11.988,0,0,1,11.887,45.538ZM53.432,63.263a3.281,3.281,0,0,1-3.277,3.277H19.57a3.281,3.281,0,0,1-3.277-3.277V51.247h2.185v4.369h32.77V48.3a12.905,12.905,0,0,0,2.185.567ZM48.205,43.956a7.63,7.63,0,0,1,14.823,0,10.86,10.86,0,0,1-14.823,0Z" transform="translate(0 0)" fill="#fff"/>
    <path id="Path_119" data-name="Path 119" d="M31,12.382V26.84l14.458-7.229Zm2.185,3.535,7.389,3.694-7.389,3.694Z" transform="translate(2.77 1.051)" fill="#fff"/>
  </g>
</svg>
