<svg xmlns="http://www.w3.org/2000/svg" width="54.982" height="55" viewBox="0 0 54.982 55">
  <g id="XMLID_2048_" transform="translate(-0.084)">
    <g id="XMLID_2036_" transform="translate(0.084)">
      <g id="XMLID_2037_">
        <g id="XMLID_2038_">
          <path id="XMLID_2047_" d="M49.65,52.852H27.584A25.352,25.352,0,1,1,42.736,7.175H41.557a1.074,1.074,0,1,0,0,2.148h4.079a1.074,1.074,0,0,0,1.074-1.074V4.17a1.074,1.074,0,0,0-2.148,0v1.7A27.5,27.5,0,1,0,27.584,55H49.65a1.074,1.074,0,0,0,0-2.148Z" transform="translate(-0.084)" fill="#f60"/>
          <path id="XMLID_2046_" d="M69.843,74.381a1.074,1.074,0,0,0-1.482.336,20.5,20.5,0,1,0,6.4-6.416,1.074,1.074,0,1,0,1.149,1.815,18.351,18.351,0,1,1-3.173,28.5,18.251,18.251,0,0,1-2.562-22.755A1.074,1.074,0,0,0,69.843,74.381Z" transform="translate(-58.221 -58.137)" fill="#f60"/>
          <path id="XMLID_2045_" d="M123.536,210.024a3.113,3.113,0,0,0-3.11,3.11,1.074,1.074,0,0,0,2.148,0,.962.962,0,0,1,.961-.961c.847,0,.961.486.961.961,0,1.554-2.229,3.777-3.633,4.813a1.074,1.074,0,0,0,.636,1.94h4.071a1.074,1.074,0,0,0,0-2.148h-1.266c1.159-1.235,2.34-2.909,2.34-4.6A2.944,2.944,0,0,0,123.536,210.024Z" transform="translate(-107.499 -187.463)" fill="#f60"/>
          <path id="XMLID_2044_" d="M190.466,210.024a1.074,1.074,0,0,0-1.074,1.074v3.86a1.074,1.074,0,0,0,1.074,1.074H193.1v2.795a1.074,1.074,0,0,0,2.148,0V211.1a1.074,1.074,0,0,0-2.148,0v2.786H191.54V211.1A1.074,1.074,0,0,0,190.466,210.024Z" transform="translate(-169.056 -187.463)" fill="#f60"/>
          <path id="XMLID_2043_" d="M266.23,219.885a1.074,1.074,0,0,0,.978-.629l3.514-7.714a1.074,1.074,0,0,0-1.955-.891l-3.514,7.714a1.075,1.075,0,0,0,.977,1.52Z" transform="translate(-236.682 -187.461)" fill="#f60"/>
          <path id="XMLID_2042_" d="M331.735,219.841a1.073,1.073,0,0,0,1.337-.72l2.314-7.714a1.074,1.074,0,0,0-1.029-1.383h-4.628a1.074,1.074,0,0,0,0,2.148h3.185l-1.9,6.331A1.074,1.074,0,0,0,331.735,219.841Z" transform="translate(-293.359 -187.463)" fill="#f60"/>
          <path id="XMLID_2040_" d="M119.254,118.1a1.073,1.073,0,1,0,.759.315A1.083,1.083,0,0,0,119.254,118.1Z" transform="translate(-105.493 -105.413)" fill="#f60"/>
          <path id="XMLID_2039_" d="M492.87,492h-.014a1.074,1.074,0,1,0,0,2.148h.014a1.074,1.074,0,0,0,0-2.148Z" transform="translate(-438.962 -439.148)" fill="#f60"/>
        </g>
      </g>
    </g>
  </g>
</svg>
