<svg xmlns="http://www.w3.org/2000/svg" width="74.739" height="54.867" viewBox="0 0 74.739 54.867">
  <g id="lineal" transform="translate(0 -68.066)">
    <g id="Group_124" data-name="Group 124" transform="translate(57.332 91.478)">
      <g id="Group_123" data-name="Group 123">
        <path id="Path_131" data-name="Path 131" d="M401.359,229.735c-2.543-1.271-7.311-1.286-7.513-1.286a1.095,1.095,0,1,0,0,2.19c1.23,0,4.8.19,6.534,1.055a1.095,1.095,0,0,0,.979-1.959Z" transform="translate(-392.751 -228.449)" fill="#f60"/>
      </g>
    </g>
    <g id="Group_126" data-name="Group 126" transform="translate(0 68.066)">
      <g id="Group_125" data-name="Group 125">
        <path id="Path_132" data-name="Path 132" d="M71.4,108.352l-4.522-1.292a.459.459,0,0,1-.332-.44v-1.509a8.229,8.229,0,0,0,1.047-.858,8.054,8.054,0,0,0,2.465-5.827V96.343l.437-.874a6.984,6.984,0,0,0,.733-3.107V86.72a1.1,1.1,0,0,0-1.095-1.095H59.6a6.956,6.956,0,0,0-6.948,6.948v.065a5.807,5.807,0,0,0,.61,2.584l.561,1.121v1.788a8.542,8.542,0,0,0,3.512,6.907v1.582c0,.244,0,.345-.9.6l-2.206.63-6.382-2.321a1.093,1.093,0,0,0-.3-.838L45.5,102.552v-3.6c.216-.178.428-.36.634-.553a12.849,12.849,0,0,0,4.048-9.341V86.188a12.655,12.655,0,0,0,1.171-5.322V69.161a1.1,1.1,0,0,0-1.095-1.095H33.872a10.471,10.471,0,0,0-10.46,10.46v2.341a12.655,12.655,0,0,0,1.171,5.322V88.66a13.378,13.378,0,0,0,4.682,10.21v3.682l-2.039,2.143a1.094,1.094,0,0,0-.3.838l-6.736,2.449a5.741,5.741,0,0,0-1.353.709l-1.058-.529a8.362,8.362,0,0,0,4.194-3.394,1.094,1.094,0,0,0,0-.979c-.789-1.579-.885-4.472-.962-6.8-.026-.774-.05-1.505-.1-2.156-.373-5.251-4.365-9.211-9.286-9.211s-8.913,3.96-9.286,9.211c-.046.651-.071,1.382-.1,2.157-.077,2.325-.173,5.218-.962,6.8a1.1,1.1,0,0,0,0,.979,8.361,8.361,0,0,0,4.2,3.392l-2.938,1.469A4.583,4.583,0,0,0,0,113.75v8.088a1.095,1.095,0,1,0,2.19,0V113.75a2.4,2.4,0,0,1,1.336-2.162l3.659-1.829,1.273,1.209a4.6,4.6,0,0,0,6.347,0l1.272-1.209,1.193.6a5.765,5.765,0,0,0-.881,3.057v8.426a1.095,1.095,0,0,0,2.19,0v-8.426a3.6,3.6,0,0,1,2.362-3.372l7.1-2.582L31,111.893a2.257,2.257,0,0,0,1.662,1q.113.011.226.011a2.257,2.257,0,0,0,1.6-.664l1.8-1.8v11.4a1.095,1.095,0,0,0,2.19,0v-11.4l1.8,1.8a2.256,2.256,0,0,0,1.6.664q.112,0,.226-.011a2.257,2.257,0,0,0,1.662-1l2.957-4.435,7.1,2.582a3.6,3.6,0,0,1,2.362,3.372v8.426a1.095,1.095,0,0,0,2.19,0v-8.426a5.788,5.788,0,0,0-1.619-4.006l.27-.077a6.005,6.005,0,0,0,1.019-.368l2.8,2.8v10.082a1.095,1.095,0,1,0,2.19,0V111.757l2.776-2.776a2.6,2.6,0,0,0,.466.185l4.522,1.292a2.427,2.427,0,0,1,1.753,2.324v9.057a1.095,1.095,0,0,0,2.19,0v-9.057A4.627,4.627,0,0,0,71.4,108.352ZM7.024,106.418a7.871,7.871,0,0,1-3.514-2.256,12.068,12.068,0,0,0,.624-2.622,8.164,8.164,0,0,0,2.89,3.565Zm6.272,2.963a2.416,2.416,0,0,1-3.33,0l-1.018-.968a2.265,2.265,0,0,0,.266-1.069v-1.167a8.141,8.141,0,0,0,4.834,0v1.166a2.265,2.265,0,0,0,.266,1.07Zm-1.665-5.026A5.935,5.935,0,0,1,5.7,98.426a1.088,1.088,0,0,0-1.275-1.079c0-.094.006-.188.009-.282.024-.753.048-1.464.091-2.074a8.128,8.128,0,0,1,2.213-5.1,6.8,6.8,0,0,1,9.778,0,8.128,8.128,0,0,1,2.213,5.1c.043.61.067,1.321.092,2.073l.007.2a9.837,9.837,0,0,0-5.408-3.951,13.74,13.74,0,0,0-4.164-.66,1.1,1.1,0,0,0-.758.334L6.526,95.032A1.095,1.095,0,1,0,8.1,96.552l1.644-1.7c1.416.069,5.97.6,7.741,4.5A5.915,5.915,0,0,1,11.631,104.355Zm4.606,2.067v-1.306a8.1,8.1,0,0,0,2.89-3.569,12.053,12.053,0,0,0,.623,2.616A7.908,7.908,0,0,1,16.237,106.421ZM26.772,88.66V85.944a1.1,1.1,0,0,0-.109-.476,10.5,10.5,0,0,1-1.062-4.6V78.526a8.279,8.279,0,0,1,8.27-8.27H49.165V80.867a10.5,10.5,0,0,1-1.062,4.6,1.1,1.1,0,0,0-.109.476v3.117A10.511,10.511,0,0,1,44.639,96.8a10.9,10.9,0,0,1-.841.712l-.019.014a10.527,10.527,0,0,1-7.1,2.119A10.844,10.844,0,0,1,26.772,88.66Zm6.164,22.029a.069.069,0,0,1-.061.022.07.07,0,0,1-.056-.033l-3.4-5.107,1.1-1.151,5.165,3.531Zm4.447-4.225-5.929-4.053v-2.044a12.327,12.327,0,0,0,5.079,1.466q.433.028.861.028a12.682,12.682,0,0,0,5.918-1.45v2Zm4.563,4.214a.07.07,0,0,1-.056.033.068.068,0,0,1-.061-.022l-2.74-2.74,5.165-3.531,1.1,1.151Zm19.991-.924-2.485-2.484a3,3,0,0,0,.068-.65v-.462a7.677,7.677,0,0,0,2.168.383c.084,0,.168,0,.252,0a8.132,8.132,0,0,0,2.414-.365v.441a2.617,2.617,0,0,0,.079.638Zm4.129-7.073a5.884,5.884,0,0,1-4.312,1.671,6.129,6.129,0,0,1-5.746-6.22V96.085a1.094,1.094,0,0,0-.116-.49l-.676-1.353a3.606,3.606,0,0,1-.379-1.6v-.065A4.764,4.764,0,0,1,59.6,87.815h9.441v4.547a4.784,4.784,0,0,1-.5,2.128L67.983,95.6a1.094,1.094,0,0,0-.116.49v2.341A5.882,5.882,0,0,1,66.067,102.681Z" transform="translate(0 -68.066)" fill="#f60"/>
      </g>
    </g>
    <g id="Group_128" data-name="Group 128" transform="translate(67.867 113.72)">
      <g id="Group_127" data-name="Group 127" transform="translate(0 0)">
        <path id="Path_133" data-name="Path 133" d="M466.018,380.814a1.1,1.1,0,0,0-1.095,1.095v7.024a1.095,1.095,0,0,0,2.19,0v-7.024A1.1,1.1,0,0,0,466.018,380.814Z" transform="translate(-464.923 -380.814)" fill="#f60"/>
      </g>
    </g>
    <g id="Group_130" data-name="Group 130" transform="translate(4.682 115.167)">
      <g id="Group_129" data-name="Group 129">
        <path id="Path_134" data-name="Path 134" d="M33.172,390.728a1.1,1.1,0,0,0-1.095,1.095V397.4a1.095,1.095,0,1,0,2.19,0v-5.576A1.1,1.1,0,0,0,33.172,390.728Z" transform="translate(-32.077 -390.728)" fill="#f60"/>
      </g>
    </g>
    <g id="Group_132" data-name="Group 132" transform="translate(28.094 78.012)">
      <g id="Group_131" data-name="Group 131" transform="translate(0 0)">
        <path id="Path_135" data-name="Path 135" d="M210.717,139.454c-4.141-4.141-12.8-3.349-16.337-2.817a2.248,2.248,0,0,0-1.92,2.239V141.4a1.095,1.095,0,0,0,2.19,0v-2.522a.072.072,0,0,1,.057-.074,34.587,34.587,0,0,1,7.113-.347c3.414.227,5.887,1.084,7.35,2.547a1.095,1.095,0,0,0,1.548-1.548Z" transform="translate(-192.46 -136.203)" fill="#f60"/>
      </g>
    </g>
    <g id="Group_134" data-name="Group 134" transform="translate(23.412 116.061)">
      <g id="Group_133" data-name="Group 133">
        <path id="Path_136" data-name="Path 136" d="M161.479,396.853a1.1,1.1,0,0,0-1.095,1.095v4.682a1.095,1.095,0,1,0,2.19,0v-4.682A1.1,1.1,0,0,0,161.479,396.853Z" transform="translate(-160.384 -396.853)" fill="#f60"/>
      </g>
    </g>
    <g id="Group_136" data-name="Group 136" transform="translate(49.165 116.061)">
      <g id="Group_135" data-name="Group 135">
        <path id="Path_137" data-name="Path 137" d="M337.9,396.853a1.1,1.1,0,0,0-1.095,1.095v4.682a1.095,1.095,0,1,0,2.19,0v-4.682A1.1,1.1,0,0,0,337.9,396.853Z" transform="translate(-336.806 -396.853)" fill="#f60"/>
      </g>
    </g>
  </g>
</svg>
