<svg id="web-design" xmlns="http://www.w3.org/2000/svg" width="65.862" height="65.862" viewBox="0 0 65.862 65.862">
  <g id="Group_69" data-name="Group 69" transform="translate(31.952 54.628)">
    <g id="Group_68" data-name="Group 68" transform="translate(0 0)">
      <rect id="Rectangle_36" data-name="Rectangle 36" width="2" height="3" transform="translate(0.048 0.372)" fill="#fff"/>
    </g>
  </g>
  <g id="Group_71" data-name="Group 71">
    <g id="Group_70" data-name="Group 70">
      <path id="Path_104" data-name="Path 104" d="M64.764,57.081h-1.1V17.563a4.391,4.391,0,0,0-4.391-4.391H52.69V4.391A4.391,4.391,0,0,0,48.3,0H17.563a4.391,4.391,0,0,0-4.391,4.391v8.782H6.586A4.391,4.391,0,0,0,2.2,17.563V57.081H1.1a1.1,1.1,0,0,0-1.1,1.1v3.293a4.391,4.391,0,0,0,4.391,4.391H61.471a4.391,4.391,0,0,0,4.391-4.391V58.178A1.1,1.1,0,0,0,64.764,57.081Zm-49.4-52.69a2.2,2.2,0,0,1,2.2-2.2H48.3a2.2,2.2,0,0,1,2.2,2.2V8.782H15.368Zm0,6.586H50.494V42.81a2.2,2.2,0,0,1-2.2,2.2H17.563a2.2,2.2,0,0,1-2.2-2.2Zm2.2,36.224H48.3A4.391,4.391,0,0,0,52.69,42.81V19.759h4.391V50.494H8.782V19.759h4.391V42.81A4.391,4.391,0,0,0,17.563,47.2ZM4.391,17.563a2.2,2.2,0,0,1,2.2-2.2h6.586v2.2H7.684a1.1,1.1,0,0,0-1.1,1.1V51.592a1.1,1.1,0,0,0,1.1,1.1H58.178a1.1,1.1,0,0,0,1.1-1.1V18.661a1.1,1.1,0,0,0-1.1-1.1H52.69v-2.2h6.586a2.2,2.2,0,0,1,2.2,2.2V57.081H42.81a1.1,1.1,0,0,0-.776.321l-1.874,1.875H25.7L23.828,57.4a1.1,1.1,0,0,0-.776-.321H4.391ZM63.667,61.471a2.2,2.2,0,0,1-2.2,2.2H4.391a2.2,2.2,0,0,1-2.2-2.2v-2.2H22.6l1.874,1.874a1.1,1.1,0,0,0,.776.322H40.615a1.1,1.1,0,0,0,.776-.322l1.874-1.874h20.4Z" fill="#fff"/>
    </g>
  </g>
  <g id="Group_73" data-name="Group 73" transform="translate(18.553 35.045)">
    <g id="Group_72" data-name="Group 72" transform="translate(0 0)">
      <rect id="Rectangle_37" data-name="Rectangle 37" width="28" height="2" transform="translate(0.447 -0.045)" fill="#fff"/>
    </g>
  </g>
  <g id="Group_75" data-name="Group 75" transform="translate(18.553 40.198)">
    <g id="Group_74" data-name="Group 74" transform="translate(0 0)">
      <rect id="Rectangle_38" data-name="Rectangle 38" width="26" height="1" transform="translate(0.447 -0.198)" fill="#fff"/>
    </g>
  </g>
  <g id="Group_77" data-name="Group 77" transform="translate(24.737 30.922)">
    <g id="Group_76" data-name="Group 76" transform="translate(0 0)">
      <rect id="Rectangle_39" data-name="Rectangle 39" width="22" height="2" transform="translate(0.263 0.078)" fill="#fff"/>
    </g>
  </g>
  <g id="Group_79" data-name="Group 79" transform="translate(17.522 5.154)">
    <g id="Group_78" data-name="Group 78" transform="translate(0 0)">
      <rect id="Rectangle_40" data-name="Rectangle 40" width="2" height="1" transform="translate(0.478 -0.154)" fill="#fff"/>
    </g>
  </g>
  <g id="Group_81" data-name="Group 81" transform="translate(22.676 5.154)">
    <g id="Group_80" data-name="Group 80" transform="translate(0 0)">
      <rect id="Rectangle_41" data-name="Rectangle 41" width="1" height="1" transform="translate(0.324 -0.154)" fill="#fff"/>
    </g>
  </g>
  <g id="Group_83" data-name="Group 83" transform="translate(26.799 5.154)">
    <g id="Group_82" data-name="Group 82" transform="translate(0 0)">
      <rect id="Rectangle_42" data-name="Rectangle 42" width="2" height="1" transform="translate(0.201 -0.154)" fill="#fff"/>
    </g>
  </g>
  <g id="Group_85" data-name="Group 85" transform="translate(20.614 30.922)">
    <g id="Group_84" data-name="Group 84" transform="translate(0 0)">
      <rect id="Rectangle_43" data-name="Rectangle 43" width="2" height="2" transform="translate(0.386 0.078)" fill="#fff"/>
    </g>
  </g>
  <g id="Group_87" data-name="Group 87" transform="translate(23.052 16.685)">
    <g id="Group_86" data-name="Group 86">
      <path id="Path_105" data-name="Path 105" d="M174.147,123.356l-1.317-1.756-4.391,3.293a1.1,1.1,0,0,0,0,1.756l4.391,3.293,1.317-1.756-3.22-2.415Z" transform="translate(-167.999 -121.6)" fill="#fff"/>
    </g>
  </g>
  <g id="Group_89" data-name="Group 89" transform="translate(36.663 16.685)">
    <g id="Group_88" data-name="Group 88">
      <path id="Path_106" data-name="Path 106" d="M273.128,125.113a1.1,1.1,0,0,0-.22-.22l-4.391-3.293-1.317,1.756,3.22,2.415-3.22,2.415,1.317,1.756,4.391-3.293A1.1,1.1,0,0,0,273.128,125.113Z" transform="translate(-267.2 -121.6)" fill="#fff"/>
    </g>
  </g>
  <g id="Group_91" data-name="Group 91" transform="translate(29.716 14.962)">
    <g id="Group_90" data-name="Group 90">
      <rect id="Rectangle_44" data-name="Rectangle 44" width="11.822" height="2.195" transform="translate(0 10.976) rotate(-68.191)" fill="#fff"/>
    </g>
  </g>
</svg>
