<svg xmlns="http://www.w3.org/2000/svg" width="54" height="67.5" viewBox="0 0 54 67.5">
  <g id="web" transform="translate(-48)">
    <g id="Group_28" data-name="Group 28" transform="translate(48)">
      <g id="Group_27" data-name="Group 27">
        <path id="Path_54" data-name="Path 54" d="M96.375,0H53.625A5.632,5.632,0,0,0,48,5.625V36a5.632,5.632,0,0,0,5.625,5.625H69.008L67.4,47.25H63.75V49.5h22.5V47.25H82.6l-1.607-5.625H96.375A5.632,5.632,0,0,0,102,36V5.625A5.632,5.632,0,0,0,96.375,0ZM69.742,47.25l1.607-5.625h7.3l1.607,5.625ZM99.75,36a3.375,3.375,0,0,1-3.375,3.375H53.625A3.375,3.375,0,0,1,50.25,36V33.75h49.5Zm0-4.5H50.25V5.625A3.375,3.375,0,0,1,53.625,2.25h42.75A3.375,3.375,0,0,1,99.75,5.625Z" transform="translate(-48)" fill="#fff"/>
      </g>
    </g>
    <g id="Group_30" data-name="Group 30" transform="translate(51.375 51.75)">
      <g id="Group_29" data-name="Group 29">
        <path id="Path_55" data-name="Path 55" d="M104.625,368h-31.5A1.125,1.125,0,0,0,72,369.125v13.5a1.125,1.125,0,0,0,1.125,1.125h31.5a1.125,1.125,0,0,0,1.125-1.125v-13.5A1.125,1.125,0,0,0,104.625,368ZM103.5,381.5H74.25V370.25H103.5Z" transform="translate(-72 -368)" fill="#fff"/>
      </g>
    </g>
    <g id="Group_32" data-name="Group 32" transform="translate(55.962 61.442)">
      <g id="Group_31" data-name="Group 31" transform="translate(0 0)">
        <rect id="Rectangle_8" data-name="Rectangle 8" width="2" height="1" transform="translate(0.038 0.308)" fill="#fff"/>
      </g>
    </g>
    <g id="Group_34" data-name="Group 34" transform="translate(55.962 56.25)">
      <g id="Group_33" data-name="Group 33" transform="translate(0 0)">
        <rect id="Rectangle_9" data-name="Rectangle 9" width="2" height="2" transform="translate(0.038 0.5)" fill="#fff"/>
      </g>
    </g>
    <g id="Group_36" data-name="Group 36" transform="translate(60.288 56.25)">
      <g id="Group_35" data-name="Group 35" transform="translate(0 0)">
        <rect id="Rectangle_10" data-name="Rectangle 10" width="3" height="2" transform="translate(-0.288 0.5)" fill="#fff"/>
      </g>
    </g>
    <g id="Group_38" data-name="Group 38" transform="translate(64.615 56.25)">
      <g id="Group_37" data-name="Group 37" transform="translate(0 0)">
        <rect id="Rectangle_11" data-name="Rectangle 11" width="2" height="2" transform="translate(0.385 0.5)" fill="#fff"/>
      </g>
    </g>
    <g id="Group_40" data-name="Group 40" transform="translate(74.135 56.25)">
      <g id="Group_39" data-name="Group 39" transform="translate(0 0)">
        <rect id="Rectangle_12" data-name="Rectangle 12" width="2" height="2" transform="translate(-0.135 0.5)" fill="#fff"/>
      </g>
    </g>
    <g id="Group_42" data-name="Group 42" transform="translate(69.808 56.25)">
      <g id="Group_41" data-name="Group 41" transform="translate(0 0)">
        <rect id="Rectangle_13" data-name="Rectangle 13" width="2" height="2" transform="translate(0.192 0.5)" fill="#fff"/>
      </g>
    </g>
    <g id="Group_44" data-name="Group 44" transform="translate(78.462 61.442)">
      <g id="Group_43" data-name="Group 43" transform="translate(0 0)">
        <rect id="Rectangle_14" data-name="Rectangle 14" width="2" height="1" transform="translate(-0.462 0.308)" fill="#fff"/>
      </g>
    </g>
    <g id="Group_46" data-name="Group 46" transform="translate(78.462 56.25)">
      <g id="Group_45" data-name="Group 45" transform="translate(0 0)">
        <rect id="Rectangle_15" data-name="Rectangle 15" width="2" height="2" transform="translate(-0.462 0.5)" fill="#fff"/>
      </g>
    </g>
    <g id="Group_48" data-name="Group 48" transform="translate(60.288 61.442)">
      <g id="Group_47" data-name="Group 47" transform="translate(0 0)">
        <rect id="Rectangle_16" data-name="Rectangle 16" width="16" height="1" transform="translate(-0.288 0.308)" fill="#fff"/>
      </g>
    </g>
    <g id="Group_50" data-name="Group 50" transform="translate(87.375 51.75)">
      <g id="Group_49" data-name="Group 49">
        <path id="Path_56" data-name="Path 56" d="M333.625,368A5.625,5.625,0,0,0,328,373.625v4.5a5.625,5.625,0,0,0,11.25,0v-4.5A5.625,5.625,0,0,0,333.625,368ZM337,378.125a3.375,3.375,0,0,1-6.75,0v-4.5a3.375,3.375,0,0,1,6.75,0Z" transform="translate(-328 -368)" fill="#fff"/>
      </g>
    </g>
    <g id="Group_52" data-name="Group 52" transform="translate(92.308 56.25)">
      <g id="Group_51" data-name="Group 51" transform="translate(0 0)">
        <rect id="Rectangle_17" data-name="Rectangle 17" width="2" height="2" transform="translate(-0.308 0.5)" fill="#fff"/>
      </g>
    </g>
    <g id="Group_54" data-name="Group 54" transform="translate(71.659 9.839)">
      <g id="Group_53" data-name="Group 53" transform="translate(0 0)">
        <rect id="Rectangle_18" data-name="Rectangle 18" width="16.373" height="2.249" transform="translate(0 15.741) rotate(-74.032)" fill="#fff"/>
      </g>
    </g>
    <g id="Group_56" data-name="Group 56" transform="translate(60.376 11.511)">
      <g id="Group_55" data-name="Group 55">
        <path id="Path_57" data-name="Path 57" d="M144.6,83.584l-1.44-1.728-6.75,5.625a1.125,1.125,0,0,0,0,1.728l6.75,5.625,1.44-1.728-5.713-4.761Z" transform="translate(-136.004 -81.856)" fill="#fff"/>
      </g>
    </g>
    <g id="Group_58" data-name="Group 58" transform="translate(81.03 11.511)">
      <g id="Group_57" data-name="Group 57">
        <path id="Path_58" data-name="Path 58" d="M291.213,87.624a1.124,1.124,0,0,0-.143-.143l-6.75-5.625-1.44,1.728,5.713,4.761-5.713,4.761,1.44,1.728,6.75-5.625A1.125,1.125,0,0,0,291.213,87.624Z" transform="translate(-282.88 -81.856)" fill="#fff"/>
      </g>
    </g>
  </g>
</svg>
