<svg xmlns="http://www.w3.org/2000/svg" width="387.94" height="387.94" viewBox="0 0 387.94 387.94">
  <g id="seo-and-web" opacity="0.1">
    <g id="Group_279" data-name="Group 279" transform="translate(187.062 323.966)">
      <g id="Group_278" data-name="Group 278" transform="translate(0 0)">
        <rect id="Rectangle_140" data-name="Rectangle 140" width="14" height="10" transform="translate(-0.122 -0.026)"/>
      </g>
    </g>
    <g id="Group_281" data-name="Group 281">
      <g id="Group_280" data-name="Group 280">
        <path id="Path_329" data-name="Path 329" d="M381.474,336.215h-6.466V103.451a25.863,25.863,0,0,0-25.863-25.863H310.352V25.863A25.863,25.863,0,0,0,284.489,0H103.451A25.863,25.863,0,0,0,77.588,25.863V77.588H38.794a25.863,25.863,0,0,0-25.863,25.863V336.215H6.466A6.466,6.466,0,0,0,0,342.68v19.4A25.863,25.863,0,0,0,25.863,387.94H362.078a25.863,25.863,0,0,0,25.863-25.863v-19.4A6.466,6.466,0,0,0,381.474,336.215ZM90.519,25.863a12.931,12.931,0,0,1,12.931-12.931H284.489a12.931,12.931,0,0,1,12.931,12.931V51.725H90.519Zm0,38.794h206.9v187.5a12.931,12.931,0,0,1-12.931,12.931H103.451a12.931,12.931,0,0,1-12.931-12.931Zm12.931,213.367H284.489a25.863,25.863,0,0,0,25.863-25.863V116.382h25.863V297.421H51.725V116.382H77.588V252.161A25.863,25.863,0,0,0,103.451,278.024ZM25.863,103.451A12.931,12.931,0,0,1,38.794,90.519H77.588v12.931H45.26a6.466,6.466,0,0,0-6.466,6.466v193.97a6.466,6.466,0,0,0,6.466,6.466H342.68a6.466,6.466,0,0,0,6.466-6.466V109.916a6.466,6.466,0,0,0-6.466-6.466H310.352V90.519h38.794a12.931,12.931,0,0,1,12.931,12.931V336.215H252.161a6.466,6.466,0,0,0-4.571,1.888l-11.037,11.043H151.387L140.35,338.1a6.466,6.466,0,0,0-4.571-1.888H25.863ZM375.009,362.078a12.931,12.931,0,0,1-12.931,12.931H25.863a12.931,12.931,0,0,1-12.931-12.931V349.146H133.1l11.037,11.037a6.465,6.465,0,0,0,4.571,1.894H239.23a6.465,6.465,0,0,0,4.571-1.894l11.037-11.037H375.009Z"/>
      </g>
    </g>
    <g id="Group_283" data-name="Group 283" transform="translate(110.293 207.534)">
      <g id="Group_282" data-name="Group 282" transform="translate(0 0)">
        <rect id="Rectangle_141" data-name="Rectangle 141" width="168" height="12" transform="translate(-0.353 0.406)"/>
      </g>
    </g>
    <g id="Group_285" data-name="Group 285" transform="translate(110.293 233.123)">
      <g id="Group_284" data-name="Group 284" transform="translate(0 0)">
        <rect id="Rectangle_142" data-name="Rectangle 142" width="156" height="14" transform="translate(-0.353 -0.183)"/>
      </g>
    </g>
    <g id="Group_287" data-name="Group 287" transform="translate(149.957 180.665)">
      <g id="Group_286" data-name="Group 286" transform="translate(0 0)">
        <rect id="Rectangle_143" data-name="Rectangle 143" width="128" height="13" transform="translate(-0.017 0.275)"/>
      </g>
    </g>
    <g id="Group_289" data-name="Group 289" transform="translate(102.616 25.848)">
      <g id="Group_288" data-name="Group 288" transform="translate(0 0)">
        <rect id="Rectangle_144" data-name="Rectangle 144" width="14" height="14" transform="translate(0.324 0.092)"/>
      </g>
    </g>
    <g id="Group_291" data-name="Group 291" transform="translate(128.206 25.848)">
      <g id="Group_290" data-name="Group 290" transform="translate(0 0)">
        <rect id="Rectangle_145" data-name="Rectangle 145" width="14" height="14" transform="translate(-0.266 0.092)"/>
      </g>
    </g>
    <g id="Group_293" data-name="Group 293" transform="translate(155.075 25.848)">
      <g id="Group_292" data-name="Group 292" transform="translate(0 0)">
        <rect id="Rectangle_146" data-name="Rectangle 146" width="12" height="14" transform="translate(-0.135 0.092)"/>
      </g>
    </g>
    <g id="Group_295" data-name="Group 295" transform="translate(123.088 180.665)">
      <g id="Group_294" data-name="Group 294" transform="translate(0 0)">
        <rect id="Rectangle_147" data-name="Rectangle 147" width="13" height="13" transform="translate(-0.148 0.275)"/>
      </g>
    </g>
    <g id="Group_297" data-name="Group 297" transform="translate(135.779 98.278)">
      <g id="Group_296" data-name="Group 296">
        <path id="Path_330" data-name="Path 330" d="M204.208,131.945,196.449,121.6,170.586,141a6.466,6.466,0,0,0,0,10.345l25.863,19.4,7.759-10.345L185.244,146.17Z" transform="translate(-167.999 -121.6)"/>
      </g>
    </g>
    <g id="Group_299" data-name="Group 299" transform="translate(215.953 98.278)">
      <g id="Group_298" data-name="Group 298">
        <path id="Path_331" data-name="Path 331" d="M302.115,142.29A6.493,6.493,0,0,0,300.821,141l-25.863-19.4L267.2,131.945l18.964,14.225L267.2,160.394l7.759,10.345,25.863-19.4A6.465,6.465,0,0,0,302.115,142.29Z" transform="translate(-267.2 -121.6)"/>
      </g>
    </g>
    <g id="Group_301" data-name="Group 301" transform="translate(175.035 88.131)">
      <g id="Group_300" data-name="Group 300" transform="translate(0)">
        <rect id="Rectangle_148" data-name="Rectangle 148" width="69.635" height="12.931" transform="translate(0 64.649) rotate(-68.191)"/>
      </g>
    </g>
  </g>
</svg>
