<svg xmlns="http://www.w3.org/2000/svg" width="128.585" height="128.585" viewBox="0 0 128.585 128.585">
  <g id="interface" transform="translate(-0.001)" opacity="0.1">
    <g id="Group_6" data-name="Group 6" transform="translate(58.844 107.956)">
      <g id="Group_5" data-name="Group 5">
        <path id="Path_34" data-name="Path 34" d="M238.588,430.6a2.51,2.51,0,1,0,.736,1.775A2.531,2.531,0,0,0,238.588,430.6Z" transform="translate(-234.301 -429.859)" fill="#f60"/>
      </g>
    </g>
    <g id="Group_8" data-name="Group 8" transform="translate(0.001 64.533)">
      <g id="Group_7" data-name="Group 7">
        <path id="Path_35" data-name="Path 35" d="M75.088,277.948v-18.48a2.511,2.511,0,0,0-3.45-2.33L28.363,274.568H14.425a14.424,14.424,0,0,0,0,28.849h1.66V318.5A2.512,2.512,0,0,0,18.6,321.01H28.849a2.512,2.512,0,0,0,2.511-2.511v-13.87l40.279,16.2a2.511,2.511,0,0,0,3.448-2.33V300.019a11.317,11.317,0,0,0,0-22.071ZM26.338,315.987h-5.23v-12.57h5.23v12.57Zm0-17.593H14.425a9.4,9.4,0,1,1,0-18.8H26.339Zm43.728,16.388h0l-38.7-15.567v-20.44l27.482-11.068v24.923a2.511,2.511,0,1,0,5.023,0V265.684l6.2-2.5Zm5.023-20.025V283.211a6.294,6.294,0,0,1,0,11.545Z" transform="translate(-0.001 -256.958)" fill="#f60"/>
      </g>
    </g>
    <g id="Group_10" data-name="Group 10" transform="translate(91.124 94.122)">
      <g id="Group_9" data-name="Group 9">
        <path id="Path_36" data-name="Path 36" d="M379.566,374.775H365.346a2.511,2.511,0,1,0,0,5.023h14.219a2.511,2.511,0,1,0,0-5.023Z" transform="translate(-362.835 -374.775)" fill="#f60"/>
      </g>
    </g>
    <g id="Group_12" data-name="Group 12" transform="translate(87.001 74.984)">
      <g id="Group_11" data-name="Group 11">
        <path id="Path_37" data-name="Path 37" d="M355.611,299.305a2.512,2.512,0,0,0-3.552,0l-4.9,4.9a2.512,2.512,0,0,0,3.552,3.552l4.9-4.9A2.512,2.512,0,0,0,355.611,299.305Z" transform="translate(-346.418 -298.57)" fill="#f60"/>
      </g>
    </g>
    <g id="Group_14" data-name="Group 14" transform="translate(87.022 107.957)">
      <g id="Group_13" data-name="Group 13">
        <path id="Path_38" data-name="Path 38" d="M355.855,435.668l-5.069-5.069a2.512,2.512,0,0,0-3.552,3.552l5.069,5.069a2.511,2.511,0,1,0,3.552-3.552Z" transform="translate(-346.499 -429.864)" fill="#f60"/>
      </g>
    </g>
    <g id="Group_16" data-name="Group 16" transform="translate(13.563)">
      <g id="Group_15" data-name="Group 15">
        <path id="Path_39" data-name="Path 39" d="M158.979,0H112.266A10.057,10.057,0,0,0,102.22,10.046v1H60.028A6.034,6.034,0,0,0,54,17.078V56.758a6.034,6.034,0,0,0,6.027,6.027h2.6v7.7a2.511,2.511,0,0,0,4.287,1.776l9.478-9.478h49.887a6.034,6.034,0,0,0,6.027-6.027V49.224h26.676a10.057,10.057,0,0,0,10.046-10.046V10.046A10.057,10.057,0,0,0,158.979,0Zm-31.7,56.758a1.006,1.006,0,0,1-1,1H75.348a2.512,2.512,0,0,0-1.776.736l-5.926,5.926v-4.15a2.512,2.512,0,0,0-2.511-2.511H60.028a1.006,1.006,0,0,1-1-1V17.078a1.006,1.006,0,0,1,1-1H102.22V39.178a10.057,10.057,0,0,0,10.046,10.046H127.28ZM164,39.178a5.029,5.029,0,0,1-5.023,5.023H112.266a5.029,5.029,0,0,1-5.023-5.023V10.046a5.029,5.029,0,0,1,5.023-5.023h46.713A5.029,5.029,0,0,1,164,10.046Z" transform="translate(-54.001)" fill="#f60"/>
      </g>
    </g>
    <g id="Group_18" data-name="Group 18" transform="translate(84.319 12.177)">
      <g id="Group_17" data-name="Group 17">
        <path id="Path_40" data-name="Path 40" d="M356.691,58.746,339.5,48.822A2.511,2.511,0,0,0,335.736,51V70.844a2.511,2.511,0,0,0,3.767,2.175L356.691,63.1a2.511,2.511,0,0,0,0-4.35Zm-15.933,7.749V55.347l9.654,5.574Z" transform="translate(-335.736 -48.486)" fill="#f60"/>
      </g>
    </g>
    <g id="Group_20" data-name="Group 20" transform="translate(26.248 26.37)">
      <g id="Group_19" data-name="Group 19">
        <path id="Path_41" data-name="Path 41" d="M132.138,105H107.023a2.511,2.511,0,1,0,0,5.023h25.114a2.511,2.511,0,1,0,0-5.023Z" transform="translate(-104.512 -105)" fill="#f60"/>
      </g>
    </g>
    <g id="Group_22" data-name="Group 22" transform="translate(51.362 40.434)">
      <g id="Group_21" data-name="Group 21">
        <path id="Path_42" data-name="Path 42" d="M208.8,161.736a2.51,2.51,0,1,0,.736,1.776A2.529,2.529,0,0,0,208.8,161.736Z" transform="translate(-204.511 -161)" fill="#f60"/>
      </g>
    </g>
    <g id="Group_24" data-name="Group 24" transform="translate(26.248 40.434)">
      <g id="Group_23" data-name="Group 23">
        <path id="Path_43" data-name="Path 43" d="M122.717,161H107.023a2.511,2.511,0,0,0,0,5.023h15.694a2.511,2.511,0,0,0,0-5.023Z" transform="translate(-104.512 -161)" fill="#f60"/>
      </g>
    </g>
  </g>
</svg>
