<svg xmlns="http://www.w3.org/2000/svg" width="128.585" height="128.585" viewBox="0 0 128.585 128.585">
  <g id="smartphone" transform="translate(-1 -1)" opacity="0.1">
    <path id="Path_111" data-name="Path 111" d="M31,5H43.444V9.148H31Z" transform="translate(32.219 4.296)" fill="#f60"/>
    <path id="Path_112" data-name="Path 112" d="M27,5h4.148V9.148H27Z" transform="translate(27.923 4.296)" fill="#f60"/>
    <path id="Path_113" data-name="Path 113" d="M24.363,53H23.148A4.152,4.152,0,0,0,19,57.148V61.3a4.152,4.152,0,0,0,4.148,4.148h1.215A4.12,4.12,0,0,0,27.3,64.228L32.3,59.222,27.3,54.215A4.12,4.12,0,0,0,24.363,53Zm0,8.3H23.148V57.148h1.215l2.074,2.074Z" transform="translate(19.331 55.846)" fill="#f60"/>
    <path id="Path_114" data-name="Path 114" d="M37.3,53H33.148A4.152,4.152,0,0,0,29,57.148V61.3a4.152,4.152,0,0,0,4.148,4.148H37.3A4.152,4.152,0,0,0,41.444,61.3V57.148A4.152,4.152,0,0,0,37.3,53Zm-4.148,8.3V57.148H37.3l0,4.148Z" transform="translate(30.071 55.846)" fill="#f60"/>
    <path id="Path_115" data-name="Path 115" d="M47.74,53H46.525a4.12,4.12,0,0,0-2.933,1.215l-5.007,5.007,5.007,5.007a4.12,4.12,0,0,0,2.933,1.215H47.74A4.152,4.152,0,0,0,51.888,61.3V57.148A4.152,4.152,0,0,0,47.74,53Zm-1.215,8.3-2.074-2.074,2.074-2.074H47.74l0,4.148Z" transform="translate(40.366 55.846)" fill="#f60"/>
    <path id="Path_116" data-name="Path 116" d="M44.331,41.666A18.666,18.666,0,1,0,25.666,60.331,18.688,18.688,0,0,0,44.331,41.666Zm-33.183,0A14.518,14.518,0,1,1,25.666,56.183,14.534,14.534,0,0,1,11.148,41.666Z" transform="translate(6.444 23.627)" fill="#f60"/>
    <path id="Path_117" data-name="Path 117" d="M31.74,37.37A10.37,10.37,0,1,0,21.37,47.74,10.382,10.382,0,0,0,31.74,37.37Zm-16.592,0a6.222,6.222,0,1,1,6.222,6.222A6.229,6.229,0,0,1,15.148,37.37Z" transform="translate(10.74 27.923)" fill="#f60"/>
    <path id="Path_118" data-name="Path 118" d="M104.7,42.479V11.37A10.382,10.382,0,0,0,94.328,1H36.257a10.382,10.382,0,0,0-10.37,10.37V34.183H24.276L22.8,39.995c-.662.247-1.325.523-1.983.83L15.65,37.755,4.571,48.834,7.641,54c-.3.657-.583,1.321-.83,1.983L1,57.459V73.128l5.811,1.479c.247.662.523,1.325.83,1.983L4.571,81.754,15.65,92.833l5.164-3.069q.986.457,1.983.83L24.276,96.4h1.611v22.814a10.382,10.382,0,0,0,10.37,10.37H94.328a10.382,10.382,0,0,0,10.37-10.37V92.254a24.888,24.888,0,0,0,0-49.775Zm20.74,24.888A20.621,20.621,0,0,1,121.922,78.9a18.551,18.551,0,0,0-10.214-10.164,10.37,10.37,0,1,0-14.02,0A18.551,18.551,0,0,0,87.474,78.9a20.736,20.736,0,1,1,37.964-11.535ZM98.476,61.145a6.222,6.222,0,1,1,6.222,6.222A6.229,6.229,0,0,1,98.476,61.145ZM38.331,96.4h1.611l1.479-5.811c.662-.247,1.325-.523,1.983-.83l5.164,3.069L59.647,81.752l-3.069-5.164q.457-.986.83-1.983l5.811-1.479V57.457l-5.811-1.479c-.247-.662-.523-1.325-.83-1.983l3.069-5.162L48.568,37.755,43.4,40.824q-.986-.457-1.983-.83l-1.479-5.811H38.331V21.74H92.254V45.847a24.829,24.829,0,0,0,0,43.039V100.55H38.331Zm-8.3-85.032a6.229,6.229,0,0,1,6.222-6.222H94.328a6.229,6.229,0,0,1,6.222,6.222V42.855A24.7,24.7,0,0,0,96.4,43.931V17.592H34.183V34.183H30.035ZM21.671,85.562l-1.022-.527L16.3,87.619,9.785,81.1l2.584-4.345-.527-1.022a22.826,22.826,0,0,1-1.46-3.49l-.35-1.1L5.148,69.9V60.684l4.882-1.242.351-1.1a22.934,22.934,0,0,1,1.46-3.493l.527-1.022L9.783,49.487,16.3,42.969l4.345,2.584,1.022-.527a22.826,22.826,0,0,1,3.49-1.46l1.1-.35L27.5,38.331h9.219l1.242,4.882,1.1.351a22.739,22.739,0,0,1,3.49,1.46l1.022.527,4.345-2.584,6.518,6.518L51.847,53.83l.527,1.022a22.933,22.933,0,0,1,1.46,3.493l.35,1.1,4.886,1.242V69.9l-4.882,1.242-.35,1.1a22.739,22.739,0,0,1-1.46,3.49l-.527,1.022L54.436,81.1l-6.518,6.518-4.345-2.584-1.022.527a22.826,22.826,0,0,1-3.49,1.46l-1.1.351L36.72,92.254H27.5l-1.242-4.882-1.1-.351A22.76,22.76,0,0,1,21.671,85.562Zm78.879,33.654a6.229,6.229,0,0,1-6.222,6.222H36.257a6.229,6.229,0,0,1-6.222-6.222V96.4h4.148v8.3H96.4V90.8a24.5,24.5,0,0,0,4.148,1.076ZM90.626,82.558a14.487,14.487,0,0,1,28.144,0,20.62,20.62,0,0,1-28.144,0Z" transform="translate(0)" fill="#f60"/>
    <path id="Path_119" data-name="Path 119" d="M31,12.382V39.833L58.451,26.107Zm4.148,6.711,14.028,7.014L35.148,33.122Z" transform="translate(32.219 12.224)" fill="#f60"/>
  </g>
</svg>
