<svg xmlns="http://www.w3.org/2000/svg" width="128.783" height="128.783" viewBox="0 0 128.783 128.783">
  <g id="web-design" opacity="0.1">
    <g id="Group_69" data-name="Group 69" transform="translate(62.044 108.003)">
      <g id="Group_68" data-name="Group 68" transform="translate(0 0)">
        <rect id="Rectangle_36" data-name="Rectangle 36" width="5" height="6" transform="translate(-0.347 -0.306)" fill="#f60"/>
      </g>
    </g>
    <g id="Group_71" data-name="Group 71">
      <g id="Group_70" data-name="Group 70">
        <path id="Path_104" data-name="Path 104" d="M126.636,111.612H124.49V34.342a8.586,8.586,0,0,0-8.586-8.586H103.026V8.586A8.586,8.586,0,0,0,94.441,0h-60.1a8.586,8.586,0,0,0-8.586,8.586V25.757H12.878a8.586,8.586,0,0,0-8.586,8.586v77.27H2.146A2.146,2.146,0,0,0,0,113.758V120.2a8.586,8.586,0,0,0,8.586,8.586H120.2a8.586,8.586,0,0,0,8.586-8.586v-6.439A2.146,2.146,0,0,0,126.636,111.612ZM30.049,8.586a4.293,4.293,0,0,1,4.293-4.293h60.1a4.293,4.293,0,0,1,4.293,4.293v8.586H30.049Zm0,12.878H98.733V83.709A4.293,4.293,0,0,1,94.441,88h-60.1a4.293,4.293,0,0,1-4.293-4.293Zm4.293,70.83h60.1a8.586,8.586,0,0,0,8.586-8.586V38.635h8.586v60.1H17.171v-60.1h8.586V83.709A8.586,8.586,0,0,0,34.342,92.294ZM8.586,34.342a4.293,4.293,0,0,1,4.293-4.293H25.757v4.293H15.025a2.146,2.146,0,0,0-2.146,2.146V100.88a2.146,2.146,0,0,0,2.146,2.146h98.733a2.146,2.146,0,0,0,2.146-2.146V36.488a2.146,2.146,0,0,0-2.146-2.146H103.026V30.049H115.9a4.293,4.293,0,0,1,4.293,4.293v77.27H83.709a2.147,2.147,0,0,0-1.517.627L78.527,115.9H50.255l-3.664-3.666a2.147,2.147,0,0,0-1.517-.627H8.586ZM124.49,120.2a4.293,4.293,0,0,1-4.293,4.293H8.586A4.293,4.293,0,0,1,4.293,120.2V115.9H44.185l3.664,3.664a2.146,2.146,0,0,0,1.517.629H79.416a2.146,2.146,0,0,0,1.517-.629L84.6,115.9H124.49Z" fill="#f60"/>
      </g>
    </g>
    <g id="Group_73" data-name="Group 73" transform="translate(36.767 68.938)">
      <g id="Group_72" data-name="Group 72" transform="translate(0 0)">
        <rect id="Rectangle_37" data-name="Rectangle 37" width="55" height="4" transform="translate(-0.07 -0.241)" fill="#f60"/>
      </g>
    </g>
    <g id="Group_75" data-name="Group 75" transform="translate(36.767 78.13)">
      <g id="Group_74" data-name="Group 74" transform="translate(0 0)">
        <rect id="Rectangle_38" data-name="Rectangle 38" width="52" height="3" transform="translate(-0.07 -0.433)" fill="#f60"/>
      </g>
    </g>
    <g id="Group_77" data-name="Group 77" transform="translate(49.406 60.895)">
      <g id="Group_76" data-name="Group 76" transform="translate(0 0)">
        <rect id="Rectangle_39" data-name="Rectangle 39" width="42" height="4" transform="translate(0.292 -0.198)" fill="#f60"/>
      </g>
    </g>
    <g id="Group_79" data-name="Group 79" transform="translate(35.618 10.341)">
      <g id="Group_78" data-name="Group 78" transform="translate(0 0)">
        <rect id="Rectangle_40" data-name="Rectangle 40" width="3" height="1" transform="translate(0.079 0.357)" fill="#f60"/>
      </g>
    </g>
    <g id="Group_81" data-name="Group 81" transform="translate(44.81 10.341)">
      <g id="Group_80" data-name="Group 80" transform="translate(0 0)">
        <rect id="Rectangle_41" data-name="Rectangle 41" width="2" height="1" transform="translate(-0.113 0.357)" fill="#f60"/>
      </g>
    </g>
    <g id="Group_83" data-name="Group 83" transform="translate(52.853 10.341)">
      <g id="Group_82" data-name="Group 82" transform="translate(0 0)">
        <rect id="Rectangle_42" data-name="Rectangle 42" width="4" height="1" transform="translate(-0.155 0.357)" fill="#f60"/>
      </g>
    </g>
    <g id="Group_85" data-name="Group 85" transform="translate(41.363 60.895)">
      <g id="Group_84" data-name="Group 84" transform="translate(0 0)">
        <rect id="Rectangle_43" data-name="Rectangle 43" width="3" height="4" transform="translate(0.334 -0.198)" fill="#f60"/>
      </g>
    </g>
    <g id="Group_87" data-name="Group 87" transform="translate(45.074 32.625)">
      <g id="Group_86" data-name="Group 86">
        <path id="Path_105" data-name="Path 105" d="M180.019,125.034l-2.576-3.434-8.585,6.439a2.146,2.146,0,0,0,0,3.434l8.585,6.439,2.576-3.434-6.3-4.722Z" transform="translate(-167.999 -121.6)" fill="#f60"/>
      </g>
    </g>
    <g id="Group_89" data-name="Group 89" transform="translate(71.689 32.625)">
      <g id="Group_88" data-name="Group 88">
        <path id="Path_106" data-name="Path 106" d="M278.79,128.468a2.153,2.153,0,0,0-.429-.429l-8.585-6.439-2.576,3.434,6.3,4.722-6.3,4.722,2.576,3.434,8.585-6.439A2.146,2.146,0,0,0,278.79,128.468Z" transform="translate(-267.2 -121.6)" fill="#f60"/>
      </g>
    </g>
    <g id="Group_91" data-name="Group 91" transform="translate(58.106 29.257)">
      <g id="Group_90" data-name="Group 90" transform="translate(0 0)">
        <rect id="Rectangle_44" data-name="Rectangle 44" width="23.116" height="4.293" transform="translate(0 21.461) rotate(-68.191)" fill="#f60"/>
      </g>
    </g>
  </g>
</svg>
