<svg xmlns="http://www.w3.org/2000/svg" width="128.585" height="128.585" viewBox="0 0 128.585 128.585">
  <g id="graphic-tool" opacity="0.1">
    <path id="Path_120" data-name="Path 120" d="M308.511,346a2.511,2.511,0,1,0,2.511,2.511A2.512,2.512,0,0,0,308.511,346Zm0,0" transform="translate(-229.15 -259.104)" fill="#f60"/>
    <path id="Path_121" data-name="Path 121" d="M116.028,0H12.557A12.571,12.571,0,0,0,0,12.557v76.85a12.571,12.571,0,0,0,12.557,12.557H51.736v11.553H49.224a12.56,12.56,0,0,0-12.557,12.557,2.511,2.511,0,0,0,2.511,2.511H89.407a2.511,2.511,0,0,0,2.511-2.511,12.571,12.571,0,0,0-12.557-12.557H76.85V101.964h39.178a12.571,12.571,0,0,0,12.557-12.557V12.557A12.571,12.571,0,0,0,116.028,0ZM12.557,5.023H116.028a7.543,7.543,0,0,1,7.534,7.534V76.85H112.01V19.087a2.511,2.511,0,0,0-2.511-2.511H89.407A2.511,2.511,0,0,0,86.9,19.087V76.85H74.325c-.026-2.6-.094-5.158-.2-7.642a161.539,161.539,0,0,0-1.962-20.093,12.559,12.559,0,0,0,3.429-16.38l-8.7-15.076a2.511,2.511,0,0,0-4.35,0L53.826,32.735A12.556,12.556,0,0,0,56.59,48.584,159.425,159.425,0,0,0,54.473,69.2c-.113,2.51-.184,5.073-.212,7.647H41.69V39.178a2.5,2.5,0,0,0-.248-1.084c-.007-.013-.011-.026-.017-.039L31.379,17.964a2.512,2.512,0,0,0-4.493,0L16.84,38.055c-.006.013-.01.026-.016.039a2.5,2.5,0,0,0-.249,1.084V76.85H5.023V12.557a7.543,7.543,0,0,1,7.534-7.534ZM91.919,76.85V21.6h15.069v5.023h-2.511a2.511,2.511,0,1,0,0,5.023h2.511v7.534h-2.511a2.511,2.511,0,1,0,0,5.023h2.511v7.534h-2.511a2.511,2.511,0,1,0,0,5.023h2.511V66.8h-2.511a2.511,2.511,0,1,0,0,5.023h2.511V76.85ZM64.71,51.562a12.575,12.575,0,0,0,2.71-.3c.466,2.987,1.151,8.273,1.556,15.543H59.627c.425-7.266,1.142-12.634,1.637-15.722a12.573,12.573,0,0,0,3.445.48Zm0-5.023a7.544,7.544,0,0,1-6.533-11.294L64.71,23.936l6.529,11.308A7.539,7.539,0,0,1,64.71,46.539ZM59.4,71.827h9.8c.053,1.65.089,3.329.107,5.023H59.284c.019-1.683.057-3.362.113-5.023ZM31.644,76.85V41.69h5.023V76.85Zm-10.046,0V41.69h5.023V76.85ZM23.15,36.667,29.133,24.7l5.982,11.965Zm63.315,86.9H42.117a7.549,7.549,0,0,1,7.107-5.023H79.361a7.546,7.546,0,0,1,7.1,5.023ZM71.827,113.517H56.758V101.964H71.827Zm44.2-16.575H12.557a7.543,7.543,0,0,1-7.534-7.534V81.873h118.54v7.534A7.543,7.543,0,0,1,116.028,96.941Zm0,0" fill="#f60"/>
    <path id="Path_122" data-name="Path 122" d="M223.58,346H208.511a2.511,2.511,0,1,0,0,5.023H223.58a2.511,2.511,0,0,0,0-5.023Zm0,0" transform="translate(-154.264 -259.104)" fill="#f60"/>
  </g>
</svg>
