<svg xmlns="http://www.w3.org/2000/svg" width="36.374" height="24.25" viewBox="0 0 36.374 24.25">
  <g id="business-and-finance" transform="translate(0 -85.333)">
    <g id="Group_248" data-name="Group 248" transform="translate(0 85.333)">
      <path id="Path_314" data-name="Path 314" d="M36.051,86.985a.752.752,0,0,0-.693-.091L29.18,89.141a3.009,3.009,0,0,0-1.717,1.579,3.045,3.045,0,0,0-.148.427,28,28,0,0,1-4.992-1.941,6.14,6.14,0,0,0-7.162.708c-.983.019-2.338.136-3.67.253-.85.075-1.652.144-2.3.184a3.032,3.032,0,0,0-1.993-2.725L1.017,85.379A.758.758,0,0,0,0,86.09v15.156A.757.757,0,0,0,.758,102H2.971a3.048,3.048,0,0,0,2.383-1.161c.3.229.659.5,1.033.779.884.665,1.852,1.391,2.277,1.747,2.822,2.362,6.214,4.913,6.89,5.357a5.562,5.562,0,0,0,2.632.855,2.782,2.782,0,0,0,1.788-.505,2.435,2.435,0,0,0,1.9-.042,2.841,2.841,0,0,0,1.405-1.406,2.95,2.95,0,0,0,1.889-.277,2.583,2.583,0,0,0,1.231-1.24,2.381,2.381,0,0,0,1.655-.528,2.455,2.455,0,0,0,.993-2.248l1.922-1.063A3.036,3.036,0,0,0,33.4,103.52h2.213a.757.757,0,0,0,.758-.758V87.606A.758.758,0,0,0,36.051,86.985ZM4.391,99.505a1.523,1.523,0,0,1-1.419.984H1.516V87.172l5.161,1.877a1.516,1.516,0,0,1,.9,1.956Zm22.744,4.875c-.257.2-.616.306-.776.147-.008-.008-.021-.007-.029-.015s-.022-.032-.037-.044c-.542-.428-2.969-2.911-4.469-4.476a.757.757,0,1,0-1.094,1.048c.352.368,3.178,3.311,4.31,4.341a1.047,1.047,0,0,1-.55.617,1.168,1.168,0,0,1-1.181.027c-.006-.005-.014,0-.02-.01s-.013-.02-.023-.028c-.909-.726-3.189-3.149-3.7-3.71a.758.758,0,0,0-1.116,1.026c.025.027,2.259,2.437,3.514,3.557a1.332,1.332,0,0,1-.7.79.989.989,0,0,1-1.035-.154c-1.088-.923-3.272-3.247-3.7-3.707a.758.758,0,1,0-1.107,1.035c.509.545,2.014,2.14,3.159,3.221a3.274,3.274,0,0,1-.389.024,4.165,4.165,0,0,1-1.8-.607c-.531-.349-3.867-2.839-6.748-5.251-.436-.366-1.43-1.114-2.341-1.8-.488-.366-.937-.7-1.269-.959l2.837-7.567c.737-.032,1.718-.117,2.758-.209.588-.052,1.176-.1,1.738-.146-.864.887-2.149,2.476-1.98,3.965a2.184,2.184,0,0,0,1.074,1.633c1.238.775,3.53.125,4.634-1.233a5.268,5.268,0,0,0,1.72-.545c.888.835,2.079,1.816,3.329,2.847,2.177,1.794,4.645,3.827,5.3,4.968A.913.913,0,0,1,27.135,104.38Zm1.3-2.437A37.517,37.517,0,0,0,23.1,97.027c-1.422-1.172-2.764-2.278-3.623-3.137a.761.761,0,0,0-.893-.132,4.38,4.38,0,0,1-1.991.672.758.758,0,0,0-.565.35,2.711,2.711,0,0,1-2.77,1.064.673.673,0,0,1-.371-.52c-.073-.645.579-1.761,1.662-2.844,2.681-2.681,4.6-3.206,7.078-1.927a29.4,29.4,0,0,0,5.658,2.161,3.041,3.041,0,0,0,.09.34l2.942,7.847Zm6.424.062H33.4a1.523,1.523,0,0,1-1.419-.984l-3.187-8.5a1.517,1.517,0,0,1,.9-1.957l5.161-1.877V102Z" transform="translate(0 -85.333)" fill="#fff"/>
    </g>
  </g>
</svg>
